<svg xmlns="http://www.w3.org/2000/svg" width="1280" height="360" viewBox="0 0 1280 360" role="img" aria-label="Repository constellation">
<rect width="1280" height="360" fill="#ffffff"/>
<g stroke-linecap="round">
<line x1="127.1" y1="250.0" x2="159.5" y2="233.5" stroke="#d5dbe4" stroke-width="0.9"/>
<line x1="127.1" y1="250.0" x2="156.7" y2="190.8" stroke="#d5dbe4" stroke-width="0.9"/>
<line x1="127.1" y1="250.0" x2="230.3" y2="218.5" stroke="#d5dbe4" stroke-width="0.9"/>
<line x1="127.1" y1="250.0" x2="242.6" y2="260.5" stroke="#d5dbe4" stroke-width="0.9"/>
<line x1="127.1" y1="250.0" x2="188.0" y2="196.5" stroke="#d5dbe4" stroke-width="0.9"/>
<line x1="127.1" y1="250.0" x2="128.9" y2="210.1" stroke="#d5dbe4" stroke-width="0.9"/>
<line x1="127.1" y1="250.0" x2="192.1" y2="239.0" stroke="#d5dbe4" stroke-width="0.9"/>
<line x1="127.1" y1="250.0" x2="188.4" y2="275.7" stroke="#d5dbe4" stroke-width="0.9"/>
<line x1="127.1" y1="250.0" x2="153.5" y2="276.2" stroke="#d5dbe4" stroke-width="0.9"/>
<line x1="880.1" y1="70.3" x2="835.1" y2="102.1" stroke="#d5dbe4" stroke-width="0.9"/>
<line x1="159.5" y1="233.5" x2="156.7" y2="190.8" stroke="#d5dbe4" stroke-width="0.9"/>
<line x1="159.5" y1="233.5" x2="230.3" y2="218.5" stroke="#d5dbe4" stroke-width="0.9"/>
<line x1="159.5" y1="233.5" x2="242.6" y2="260.5" stroke="#d5dbe4" stroke-width="0.9"/>
<line x1="159.5" y1="233.5" x2="188.0" y2="196.5" stroke="#d5dbe4" stroke-width="0.9"/>
<line x1="159.5" y1="233.5" x2="128.9" y2="210.1" stroke="#d5dbe4" stroke-width="0.9"/>
<line x1="159.5" y1="233.5" x2="192.1" y2="239.0" stroke="#d5dbe4" stroke-width="0.9"/>
<line x1="159.5" y1="233.5" x2="188.4" y2="275.7" stroke="#d5dbe4" stroke-width="0.9"/>
<line x1="159.5" y1="233.5" x2="153.5" y2="276.2" stroke="#d5dbe4" stroke-width="0.9"/>
<line x1="603.5" y1="178.9" x2="578.9" y2="156.3" stroke="#d5dbe4" stroke-width="0.9"/>
<line x1="603.5" y1="178.9" x2="544.0" y2="153.3" stroke="#d5dbe4" stroke-width="0.9"/>
<line x1="603.5" y1="178.9" x2="632.0" y2="149.8" stroke="#d5dbe4" stroke-width="0.9"/>
<line x1="603.5" y1="178.9" x2="560.4" y2="185.2" stroke="#d5dbe4" stroke-width="0.9"/>
<line x1="603.5" y1="178.9" x2="535.2" y2="124.3" stroke="#d5dbe4" stroke-width="0.9"/>
<line x1="603.5" y1="178.9" x2="586.3" y2="93.6" stroke="#d5dbe4" stroke-width="0.9"/>
<line x1="603.5" y1="178.9" x2="550.2" y2="98.0" stroke="#d5dbe4" stroke-width="0.9"/>
<line x1="603.5" y1="178.9" x2="623.2" y2="116.2" stroke="#d5dbe4" stroke-width="0.9"/>
<line x1="603.5" y1="178.9" x2="576.2" y2="126.1" stroke="#d5dbe4" stroke-width="0.9"/>
<line x1="675.9" y1="96.8" x2="733.5" y2="181.2" stroke="#d5dbe4" stroke-width="0.9"/>
<line x1="675.9" y1="96.8" x2="716.9" y2="143.6" stroke="#d5dbe4" stroke-width="0.9"/>
<line x1="675.9" y1="96.8" x2="711.4" y2="108.8" stroke="#d5dbe4" stroke-width="0.9"/>
<line x1="675.9" y1="96.8" x2="685.8" y2="152.8" stroke="#d5dbe4" stroke-width="0.9"/>
<line x1="934.0" y1="185.3" x2="974.0" y2="106.8" stroke="#d5dbe4" stroke-width="0.9"/>
<line x1="934.0" y1="185.3" x2="885.3" y2="143.6" stroke="#d5dbe4" stroke-width="0.9"/>
<line x1="934.0" y1="185.3" x2="988.1" y2="143.3" stroke="#d5dbe4" stroke-width="0.9"/>
<line x1="934.0" y1="185.3" x2="973.8" y2="179.2" stroke="#d5dbe4" stroke-width="0.9"/>
<line x1="934.0" y1="185.3" x2="934.3" y2="105.5" stroke="#d5dbe4" stroke-width="0.9"/>
<line x1="934.0" y1="185.3" x2="939.0" y2="145.4" stroke="#d5dbe4" stroke-width="0.9"/>
<line x1="578.9" y1="156.3" x2="544.0" y2="153.3" stroke="#d5dbe4" stroke-width="0.9"/>
<line x1="578.9" y1="156.3" x2="509.7" y2="173.0" stroke="#d5dbe4" stroke-width="0.9"/>
<line x1="578.9" y1="156.3" x2="632.0" y2="149.8" stroke="#d5dbe4" stroke-width="0.9"/>
<line x1="578.9" y1="156.3" x2="560.4" y2="185.2" stroke="#d5dbe4" stroke-width="0.9"/>
<line x1="578.9" y1="156.3" x2="535.2" y2="124.3" stroke="#d5dbe4" stroke-width="0.9"/>
<line x1="578.9" y1="156.3" x2="586.3" y2="93.6" stroke="#d5dbe4" stroke-width="0.9"/>
<line x1="578.9" y1="156.3" x2="550.2" y2="98.0" stroke="#d5dbe4" stroke-width="0.9"/>
<line x1="578.9" y1="156.3" x2="623.2" y2="116.2" stroke="#d5dbe4" stroke-width="0.9"/>
<line x1="578.9" y1="156.3" x2="490.5" y2="140.1" stroke="#d5dbe4" stroke-width="0.9"/>
<line x1="578.9" y1="156.3" x2="576.2" y2="126.1" stroke="#d5dbe4" stroke-width="0.9"/>
<line x1="732.6" y1="264.3" x2="795.4" y2="240.0" stroke="#d5dbe4" stroke-width="0.9"/>
<line x1="732.6" y1="264.3" x2="798.8" y2="293.3" stroke="#d5dbe4" stroke-width="0.9"/>
<line x1="732.6" y1="264.3" x2="560.9" y2="250.2" stroke="#d5dbe4" stroke-width="0.9"/>
<line x1="795.4" y1="240.0" x2="849.4" y2="249.2" stroke="#d5dbe4" stroke-width="0.9"/>
<line x1="795.4" y1="240.0" x2="798.8" y2="293.3" stroke="#d5dbe4" stroke-width="0.9"/>
<line x1="974.0" y1="106.8" x2="885.3" y2="143.6" stroke="#d5dbe4" stroke-width="0.9"/>
<line x1="974.0" y1="106.8" x2="988.1" y2="143.3" stroke="#d5dbe4" stroke-width="0.9"/>
<line x1="974.0" y1="106.8" x2="973.8" y2="179.2" stroke="#d5dbe4" stroke-width="0.9"/>
<line x1="974.0" y1="106.8" x2="934.3" y2="105.5" stroke="#d5dbe4" stroke-width="0.9"/>
<line x1="974.0" y1="106.8" x2="939.0" y2="145.4" stroke="#d5dbe4" stroke-width="0.9"/>
<line x1="873.7" y1="201.3" x2="837.6" y2="152.7" stroke="#d5dbe4" stroke-width="0.9"/>
<line x1="873.7" y1="201.3" x2="821.5" y2="198.9" stroke="#d5dbe4" stroke-width="0.9"/>
<line x1="837.6" y1="152.7" x2="821.5" y2="198.9" stroke="#d5dbe4" stroke-width="0.9"/>
<line x1="355.5" y1="239.0" x2="311.9" y2="246.3" stroke="#d5dbe4" stroke-width="0.9"/>
<line x1="355.5" y1="239.0" x2="345.7" y2="176.2" stroke="#d5dbe4" stroke-width="0.9"/>
<line x1="355.5" y1="239.0" x2="361.0" y2="152.3" stroke="#d5dbe4" stroke-width="0.9"/>
<line x1="1044.7" y1="194.7" x2="1031.6" y2="233.4" stroke="#d5dbe4" stroke-width="0.9"/>
<line x1="1044.7" y1="194.7" x2="1038.8" y2="132.9" stroke="#d5dbe4" stroke-width="0.9"/>
<line x1="1044.7" y1="194.7" x2="1088.6" y2="139.3" stroke="#d5dbe4" stroke-width="0.9"/>
<line x1="1044.7" y1="194.7" x2="1010.4" y2="276.1" stroke="#d5dbe4" stroke-width="0.9"/>
<line x1="1044.7" y1="194.7" x2="991.4" y2="232.5" stroke="#d5dbe4" stroke-width="0.9"/>
<line x1="1044.7" y1="194.7" x2="1075.9" y2="240.2" stroke="#d5dbe4" stroke-width="0.9"/>
<line x1="1044.7" y1="194.7" x2="1053.9" y2="280.5" stroke="#d5dbe4" stroke-width="0.9"/>
<line x1="1031.6" y1="233.4" x2="1010.4" y2="276.1" stroke="#d5dbe4" stroke-width="0.9"/>
<line x1="1031.6" y1="233.4" x2="991.4" y2="232.5" stroke="#d5dbe4" stroke-width="0.9"/>
<line x1="1031.6" y1="233.4" x2="1075.9" y2="240.2" stroke="#d5dbe4" stroke-width="0.9"/>
<line x1="1031.6" y1="233.4" x2="1053.9" y2="280.5" stroke="#d5dbe4" stroke-width="0.9"/>
<line x1="413.0" y1="247.6" x2="466.0" y2="231.6" stroke="#d5dbe4" stroke-width="0.9"/>
<line x1="413.0" y1="247.6" x2="432.7" y2="286.0" stroke="#d5dbe4" stroke-width="0.9"/>
<line x1="413.0" y1="247.6" x2="432.0" y2="202.9" stroke="#d5dbe4" stroke-width="0.9"/>
<line x1="413.0" y1="247.6" x2="493.8" y2="267.9" stroke="#d5dbe4" stroke-width="0.9"/>
<line x1="885.3" y1="143.6" x2="988.1" y2="143.3" stroke="#d5dbe4" stroke-width="0.9"/>
<line x1="885.3" y1="143.6" x2="632.0" y2="149.8" stroke="#d5dbe4" stroke-width="0.9"/>
<line x1="885.3" y1="143.6" x2="973.8" y2="179.2" stroke="#d5dbe4" stroke-width="0.9"/>
<line x1="885.3" y1="143.6" x2="934.3" y2="105.5" stroke="#d5dbe4" stroke-width="0.9"/>
<line x1="885.3" y1="143.6" x2="939.0" y2="145.4" stroke="#d5dbe4" stroke-width="0.9"/>
<line x1="544.0" y1="153.3" x2="509.7" y2="173.0" stroke="#d5dbe4" stroke-width="0.9"/>
<line x1="544.0" y1="153.3" x2="632.0" y2="149.8" stroke="#d5dbe4" stroke-width="0.9"/>
<line x1="544.0" y1="153.3" x2="560.4" y2="185.2" stroke="#d5dbe4" stroke-width="0.9"/>
<line x1="544.0" y1="153.3" x2="535.2" y2="124.3" stroke="#d5dbe4" stroke-width="0.9"/>
<line x1="544.0" y1="153.3" x2="586.3" y2="93.6" stroke="#d5dbe4" stroke-width="0.9"/>
<line x1="544.0" y1="153.3" x2="550.2" y2="98.0" stroke="#d5dbe4" stroke-width="0.9"/>
<line x1="544.0" y1="153.3" x2="623.2" y2="116.2" stroke="#d5dbe4" stroke-width="0.9"/>
<line x1="544.0" y1="153.3" x2="492.5" y2="92.2" stroke="#d5dbe4" stroke-width="0.9"/>
<line x1="544.0" y1="153.3" x2="490.5" y2="140.1" stroke="#d5dbe4" stroke-width="0.9"/>
<line x1="544.0" y1="153.3" x2="576.2" y2="126.1" stroke="#d5dbe4" stroke-width="0.9"/>
<line x1="759.4" y1="100.0" x2="716.9" y2="143.6" stroke="#d5dbe4" stroke-width="0.9"/>
<line x1="759.4" y1="100.0" x2="711.4" y2="108.8" stroke="#d5dbe4" stroke-width="0.9"/>
<line x1="759.4" y1="100.0" x2="685.8" y2="152.8" stroke="#d5dbe4" stroke-width="0.9"/>
<line x1="759.4" y1="100.0" x2="722.5" y2="69.8" stroke="#d5dbe4" stroke-width="0.9"/>
<line x1="759.4" y1="100.0" x2="761.8" y2="145.3" stroke="#d5dbe4" stroke-width="0.9"/>
<line x1="988.1" y1="143.3" x2="973.8" y2="179.2" stroke="#d5dbe4" stroke-width="0.9"/>
<line x1="988.1" y1="143.3" x2="934.3" y2="105.5" stroke="#d5dbe4" stroke-width="0.9"/>
<line x1="988.1" y1="143.3" x2="939.0" y2="145.4" stroke="#d5dbe4" stroke-width="0.9"/>
<line x1="1038.8" y1="132.9" x2="1088.6" y2="139.3" stroke="#d5dbe4" stroke-width="0.9"/>
<line x1="509.7" y1="173.0" x2="560.4" y2="185.2" stroke="#d5dbe4" stroke-width="0.9"/>
<line x1="509.7" y1="173.0" x2="535.2" y2="124.3" stroke="#d5dbe4" stroke-width="0.9"/>
<line x1="509.7" y1="173.0" x2="550.2" y2="98.0" stroke="#d5dbe4" stroke-width="0.9"/>
<line x1="509.7" y1="173.0" x2="492.5" y2="92.2" stroke="#d5dbe4" stroke-width="0.9"/>
<line x1="509.7" y1="173.0" x2="490.5" y2="140.1" stroke="#d5dbe4" stroke-width="0.9"/>
<line x1="509.7" y1="173.0" x2="576.2" y2="126.1" stroke="#d5dbe4" stroke-width="0.9"/>
<line x1="632.0" y1="149.8" x2="560.4" y2="185.2" stroke="#d5dbe4" stroke-width="0.9"/>
<line x1="632.0" y1="149.8" x2="535.2" y2="124.3" stroke="#d5dbe4" stroke-width="0.9"/>
<line x1="632.0" y1="149.8" x2="586.3" y2="93.6" stroke="#d5dbe4" stroke-width="0.9"/>
<line x1="632.0" y1="149.8" x2="550.2" y2="98.0" stroke="#d5dbe4" stroke-width="0.9"/>
<line x1="632.0" y1="149.8" x2="623.2" y2="116.2" stroke="#d5dbe4" stroke-width="0.9"/>
<line x1="632.0" y1="149.8" x2="490.5" y2="140.1" stroke="#d5dbe4" stroke-width="0.9"/>
<line x1="632.0" y1="149.8" x2="576.2" y2="126.1" stroke="#d5dbe4" stroke-width="0.9"/>
<line x1="560.4" y1="185.2" x2="535.2" y2="124.3" stroke="#d5dbe4" stroke-width="0.9"/>
<line x1="560.4" y1="185.2" x2="586.3" y2="93.6" stroke="#d5dbe4" stroke-width="0.9"/>
<line x1="560.4" y1="185.2" x2="550.2" y2="98.0" stroke="#d5dbe4" stroke-width="0.9"/>
<line x1="560.4" y1="185.2" x2="623.2" y2="116.2" stroke="#d5dbe4" stroke-width="0.9"/>
<line x1="560.4" y1="185.2" x2="490.5" y2="140.1" stroke="#d5dbe4" stroke-width="0.9"/>
<line x1="560.4" y1="185.2" x2="576.2" y2="126.1" stroke="#d5dbe4" stroke-width="0.9"/>
<line x1="535.2" y1="124.3" x2="586.3" y2="93.6" stroke="#d5dbe4" stroke-width="0.9"/>
<line x1="535.2" y1="124.3" x2="550.2" y2="98.0" stroke="#d5dbe4" stroke-width="0.9"/>
<line x1="535.2" y1="124.3" x2="623.2" y2="116.2" stroke="#d5dbe4" stroke-width="0.9"/>
<line x1="535.2" y1="124.3" x2="492.5" y2="92.2" stroke="#d5dbe4" stroke-width="0.9"/>
<line x1="535.2" y1="124.3" x2="490.5" y2="140.1" stroke="#d5dbe4" stroke-width="0.9"/>
<line x1="535.2" y1="124.3" x2="576.2" y2="126.1" stroke="#d5dbe4" stroke-width="0.9"/>
<line x1="733.5" y1="181.2" x2="716.9" y2="143.6" stroke="#d5dbe4" stroke-width="0.9"/>
<line x1="733.5" y1="181.2" x2="711.4" y2="108.8" stroke="#d5dbe4" stroke-width="0.9"/>
<line x1="733.5" y1="181.2" x2="685.8" y2="152.8" stroke="#d5dbe4" stroke-width="0.9"/>
<line x1="733.5" y1="181.2" x2="705.2" y2="216.6" stroke="#d5dbe4" stroke-width="0.9"/>
<line x1="716.9" y1="143.6" x2="711.4" y2="108.8" stroke="#d5dbe4" stroke-width="0.9"/>
<line x1="716.9" y1="143.6" x2="623.2" y2="116.2" stroke="#d5dbe4" stroke-width="0.9"/>
<line x1="716.9" y1="143.6" x2="685.8" y2="152.8" stroke="#d5dbe4" stroke-width="0.9"/>
<line x1="716.9" y1="143.6" x2="722.5" y2="69.8" stroke="#d5dbe4" stroke-width="0.9"/>
<line x1="716.9" y1="143.6" x2="705.2" y2="216.6" stroke="#d5dbe4" stroke-width="0.9"/>
<line x1="716.9" y1="143.6" x2="761.8" y2="145.3" stroke="#d5dbe4" stroke-width="0.9"/>
<line x1="680.7" y1="287.1" x2="608.7" y2="246.7" stroke="#d5dbe4" stroke-width="0.9"/>
<line x1="680.7" y1="287.1" x2="616.6" y2="289.0" stroke="#d5dbe4" stroke-width="0.9"/>
<line x1="711.4" y1="108.8" x2="623.2" y2="116.2" stroke="#d5dbe4" stroke-width="0.9"/>
<line x1="711.4" y1="108.8" x2="685.8" y2="152.8" stroke="#d5dbe4" stroke-width="0.9"/>
<line x1="711.4" y1="108.8" x2="722.5" y2="69.8" stroke="#d5dbe4" stroke-width="0.9"/>
<line x1="711.4" y1="108.8" x2="761.8" y2="145.3" stroke="#d5dbe4" stroke-width="0.9"/>
<line x1="973.8" y1="179.2" x2="934.3" y2="105.5" stroke="#d5dbe4" stroke-width="0.9"/>
<line x1="973.8" y1="179.2" x2="939.0" y2="145.4" stroke="#d5dbe4" stroke-width="0.9"/>
<line x1="608.7" y1="246.7" x2="652.3" y2="236.2" stroke="#d5dbe4" stroke-width="0.9"/>
<line x1="608.7" y1="246.7" x2="616.6" y2="289.0" stroke="#d5dbe4" stroke-width="0.9"/>
<line x1="608.7" y1="246.7" x2="523.7" y2="235.4" stroke="#d5dbe4" stroke-width="0.9"/>
<line x1="608.7" y1="246.7" x2="493.8" y2="267.9" stroke="#d5dbe4" stroke-width="0.9"/>
<line x1="569.9" y1="294.0" x2="242.6" y2="260.5" stroke="#d5dbe4" stroke-width="0.9"/>
<line x1="156.7" y1="190.8" x2="230.3" y2="218.5" stroke="#d5dbe4" stroke-width="0.9"/>
<line x1="156.7" y1="190.8" x2="242.6" y2="260.5" stroke="#d5dbe4" stroke-width="0.9"/>
<line x1="156.7" y1="190.8" x2="188.0" y2="196.5" stroke="#d5dbe4" stroke-width="0.9"/>
<line x1="156.7" y1="190.8" x2="128.9" y2="210.1" stroke="#d5dbe4" stroke-width="0.9"/>
<line x1="156.7" y1="190.8" x2="192.1" y2="239.0" stroke="#d5dbe4" stroke-width="0.9"/>
<line x1="156.7" y1="190.8" x2="188.4" y2="275.7" stroke="#d5dbe4" stroke-width="0.9"/>
<line x1="156.7" y1="190.8" x2="153.5" y2="276.2" stroke="#d5dbe4" stroke-width="0.9"/>
<line x1="311.9" y1="246.3" x2="345.7" y2="176.2" stroke="#d5dbe4" stroke-width="0.9"/>
<line x1="311.9" y1="246.3" x2="361.0" y2="152.3" stroke="#d5dbe4" stroke-width="0.9"/>
<line x1="318.0" y1="160.7" x2="306.7" y2="187.3" stroke="#d5dbe4" stroke-width="0.9"/>
<line x1="318.0" y1="160.7" x2="277.9" y2="175.3" stroke="#d5dbe4" stroke-width="0.9"/>
<line x1="318.0" y1="160.7" x2="313.6" y2="111.8" stroke="#d5dbe4" stroke-width="0.9"/>
<line x1="318.0" y1="160.7" x2="330.6" y2="134.9" stroke="#d5dbe4" stroke-width="0.9"/>
<line x1="318.0" y1="160.7" x2="275.9" y2="90.6" stroke="#d5dbe4" stroke-width="0.9"/>
<line x1="318.0" y1="160.7" x2="306.3" y2="81.5" stroke="#d5dbe4" stroke-width="0.9"/>
<line x1="318.0" y1="160.7" x2="285.8" y2="119.7" stroke="#d5dbe4" stroke-width="0.9"/>
<line x1="318.0" y1="160.7" x2="259.8" y2="149.2" stroke="#d5dbe4" stroke-width="0.9"/>
<line x1="318.0" y1="160.7" x2="292.3" y2="147.5" stroke="#d5dbe4" stroke-width="0.9"/>
<line x1="318.0" y1="160.7" x2="255.9" y2="118.0" stroke="#d5dbe4" stroke-width="0.9"/>
<line x1="318.0" y1="160.7" x2="337.2" y2="91.1" stroke="#d5dbe4" stroke-width="0.9"/>
<line x1="318.0" y1="160.7" x2="355.0" y2="116.6" stroke="#d5dbe4" stroke-width="0.9"/>
<line x1="318.0" y1="160.7" x2="345.7" y2="176.2" stroke="#d5dbe4" stroke-width="0.9"/>
<line x1="318.0" y1="160.7" x2="361.0" y2="152.3" stroke="#d5dbe4" stroke-width="0.9"/>
<line x1="306.7" y1="187.3" x2="277.9" y2="175.3" stroke="#d5dbe4" stroke-width="0.9"/>
<line x1="306.7" y1="187.3" x2="313.6" y2="111.8" stroke="#d5dbe4" stroke-width="0.9"/>
<line x1="306.7" y1="187.3" x2="330.6" y2="134.9" stroke="#d5dbe4" stroke-width="0.9"/>
<line x1="306.7" y1="187.3" x2="275.9" y2="90.6" stroke="#d5dbe4" stroke-width="0.9"/>
<line x1="306.7" y1="187.3" x2="306.3" y2="81.5" stroke="#d5dbe4" stroke-width="0.9"/>
<line x1="306.7" y1="187.3" x2="285.8" y2="119.7" stroke="#d5dbe4" stroke-width="0.9"/>
<line x1="306.7" y1="187.3" x2="259.8" y2="149.2" stroke="#d5dbe4" stroke-width="0.9"/>
<line x1="306.7" y1="187.3" x2="292.3" y2="147.5" stroke="#d5dbe4" stroke-width="0.9"/>
<line x1="306.7" y1="187.3" x2="255.9" y2="118.0" stroke="#d5dbe4" stroke-width="0.9"/>
<line x1="306.7" y1="187.3" x2="337.2" y2="91.1" stroke="#d5dbe4" stroke-width="0.9"/>
<line x1="306.7" y1="187.3" x2="355.0" y2="116.6" stroke="#d5dbe4" stroke-width="0.9"/>
<line x1="306.7" y1="187.3" x2="345.7" y2="176.2" stroke="#d5dbe4" stroke-width="0.9"/>
<line x1="306.7" y1="187.3" x2="361.0" y2="152.3" stroke="#d5dbe4" stroke-width="0.9"/>
<line x1="277.9" y1="175.3" x2="313.6" y2="111.8" stroke="#d5dbe4" stroke-width="0.9"/>
<line x1="277.9" y1="175.3" x2="330.6" y2="134.9" stroke="#d5dbe4" stroke-width="0.9"/>
<line x1="277.9" y1="175.3" x2="275.9" y2="90.6" stroke="#d5dbe4" stroke-width="0.9"/>
<line x1="277.9" y1="175.3" x2="306.3" y2="81.5" stroke="#d5dbe4" stroke-width="0.9"/>
<line x1="277.9" y1="175.3" x2="285.8" y2="119.7" stroke="#d5dbe4" stroke-width="0.9"/>
<line x1="277.9" y1="175.3" x2="259.8" y2="149.2" stroke="#d5dbe4" stroke-width="0.9"/>
<line x1="277.9" y1="175.3" x2="292.3" y2="147.5" stroke="#d5dbe4" stroke-width="0.9"/>
<line x1="277.9" y1="175.3" x2="255.9" y2="118.0" stroke="#d5dbe4" stroke-width="0.9"/>
<line x1="277.9" y1="175.3" x2="337.2" y2="91.1" stroke="#d5dbe4" stroke-width="0.9"/>
<line x1="277.9" y1="175.3" x2="355.0" y2="116.6" stroke="#d5dbe4" stroke-width="0.9"/>
<line x1="277.9" y1="175.3" x2="345.7" y2="176.2" stroke="#d5dbe4" stroke-width="0.9"/>
<line x1="277.9" y1="175.3" x2="361.0" y2="152.3" stroke="#d5dbe4" stroke-width="0.9"/>
<line x1="313.6" y1="111.8" x2="330.6" y2="134.9" stroke="#d5dbe4" stroke-width="0.9"/>
<line x1="313.6" y1="111.8" x2="275.9" y2="90.6" stroke="#d5dbe4" stroke-width="0.9"/>
<line x1="313.6" y1="111.8" x2="306.3" y2="81.5" stroke="#d5dbe4" stroke-width="0.9"/>
<line x1="313.6" y1="111.8" x2="285.8" y2="119.7" stroke="#d5dbe4" stroke-width="0.9"/>
<line x1="313.6" y1="111.8" x2="259.8" y2="149.2" stroke="#d5dbe4" stroke-width="0.9"/>
<line x1="313.6" y1="111.8" x2="292.3" y2="147.5" stroke="#d5dbe4" stroke-width="0.9"/>
<line x1="313.6" y1="111.8" x2="255.9" y2="118.0" stroke="#d5dbe4" stroke-width="0.9"/>
<line x1="313.6" y1="111.8" x2="337.2" y2="91.1" stroke="#d5dbe4" stroke-width="0.9"/>
<line x1="313.6" y1="111.8" x2="355.0" y2="116.6" stroke="#d5dbe4" stroke-width="0.9"/>
<line x1="313.6" y1="111.8" x2="345.7" y2="176.2" stroke="#d5dbe4" stroke-width="0.9"/>
<line x1="313.6" y1="111.8" x2="361.0" y2="152.3" stroke="#d5dbe4" stroke-width="0.9"/>
<line x1="330.6" y1="134.9" x2="275.9" y2="90.6" stroke="#d5dbe4" stroke-width="0.9"/>
<line x1="330.6" y1="134.9" x2="306.3" y2="81.5" stroke="#d5dbe4" stroke-width="0.9"/>
<line x1="330.6" y1="134.9" x2="285.8" y2="119.7" stroke="#d5dbe4" stroke-width="0.9"/>
<line x1="330.6" y1="134.9" x2="259.8" y2="149.2" stroke="#d5dbe4" stroke-width="0.9"/>
<line x1="330.6" y1="134.9" x2="292.3" y2="147.5" stroke="#d5dbe4" stroke-width="0.9"/>
<line x1="330.6" y1="134.9" x2="255.9" y2="118.0" stroke="#d5dbe4" stroke-width="0.9"/>
<line x1="330.6" y1="134.9" x2="337.2" y2="91.1" stroke="#d5dbe4" stroke-width="0.9"/>
<line x1="330.6" y1="134.9" x2="355.0" y2="116.6" stroke="#d5dbe4" stroke-width="0.9"/>
<line x1="330.6" y1="134.9" x2="345.7" y2="176.2" stroke="#d5dbe4" stroke-width="0.9"/>
<line x1="330.6" y1="134.9" x2="361.0" y2="152.3" stroke="#d5dbe4" stroke-width="0.9"/>
<line x1="275.9" y1="90.6" x2="306.3" y2="81.5" stroke="#d5dbe4" stroke-width="0.9"/>
<line x1="275.9" y1="90.6" x2="285.8" y2="119.7" stroke="#d5dbe4" stroke-width="0.9"/>
<line x1="275.9" y1="90.6" x2="259.8" y2="149.2" stroke="#d5dbe4" stroke-width="0.9"/>
<line x1="275.9" y1="90.6" x2="292.3" y2="147.5" stroke="#d5dbe4" stroke-width="0.9"/>
<line x1="275.9" y1="90.6" x2="255.9" y2="118.0" stroke="#d5dbe4" stroke-width="0.9"/>
<line x1="275.9" y1="90.6" x2="337.2" y2="91.1" stroke="#d5dbe4" stroke-width="0.9"/>
<line x1="275.9" y1="90.6" x2="355.0" y2="116.6" stroke="#d5dbe4" stroke-width="0.9"/>
<line x1="275.9" y1="90.6" x2="345.7" y2="176.2" stroke="#d5dbe4" stroke-width="0.9"/>
<line x1="275.9" y1="90.6" x2="361.0" y2="152.3" stroke="#d5dbe4" stroke-width="0.9"/>
<line x1="306.3" y1="81.5" x2="285.8" y2="119.7" stroke="#d5dbe4" stroke-width="0.9"/>
<line x1="306.3" y1="81.5" x2="259.8" y2="149.2" stroke="#d5dbe4" stroke-width="0.9"/>
<line x1="306.3" y1="81.5" x2="292.3" y2="147.5" stroke="#d5dbe4" stroke-width="0.9"/>
<line x1="306.3" y1="81.5" x2="255.9" y2="118.0" stroke="#d5dbe4" stroke-width="0.9"/>
<line x1="306.3" y1="81.5" x2="337.2" y2="91.1" stroke="#d5dbe4" stroke-width="0.9"/>
<line x1="306.3" y1="81.5" x2="355.0" y2="116.6" stroke="#d5dbe4" stroke-width="0.9"/>
<line x1="306.3" y1="81.5" x2="345.7" y2="176.2" stroke="#d5dbe4" stroke-width="0.9"/>
<line x1="306.3" y1="81.5" x2="361.0" y2="152.3" stroke="#d5dbe4" stroke-width="0.9"/>
<line x1="285.8" y1="119.7" x2="259.8" y2="149.2" stroke="#d5dbe4" stroke-width="0.9"/>
<line x1="285.8" y1="119.7" x2="292.3" y2="147.5" stroke="#d5dbe4" stroke-width="0.9"/>
<line x1="285.8" y1="119.7" x2="255.9" y2="118.0" stroke="#d5dbe4" stroke-width="0.9"/>
<line x1="285.8" y1="119.7" x2="337.2" y2="91.1" stroke="#d5dbe4" stroke-width="0.9"/>
<line x1="285.8" y1="119.7" x2="355.0" y2="116.6" stroke="#d5dbe4" stroke-width="0.9"/>
<line x1="285.8" y1="119.7" x2="345.7" y2="176.2" stroke="#d5dbe4" stroke-width="0.9"/>
<line x1="285.8" y1="119.7" x2="361.0" y2="152.3" stroke="#d5dbe4" stroke-width="0.9"/>
<line x1="259.8" y1="149.2" x2="292.3" y2="147.5" stroke="#d5dbe4" stroke-width="0.9"/>
<line x1="259.8" y1="149.2" x2="255.9" y2="118.0" stroke="#d5dbe4" stroke-width="0.9"/>
<line x1="259.8" y1="149.2" x2="337.2" y2="91.1" stroke="#d5dbe4" stroke-width="0.9"/>
<line x1="259.8" y1="149.2" x2="355.0" y2="116.6" stroke="#d5dbe4" stroke-width="0.9"/>
<line x1="259.8" y1="149.2" x2="345.7" y2="176.2" stroke="#d5dbe4" stroke-width="0.9"/>
<line x1="259.8" y1="149.2" x2="361.0" y2="152.3" stroke="#d5dbe4" stroke-width="0.9"/>
<line x1="292.3" y1="147.5" x2="255.9" y2="118.0" stroke="#d5dbe4" stroke-width="0.9"/>
<line x1="292.3" y1="147.5" x2="337.2" y2="91.1" stroke="#d5dbe4" stroke-width="0.9"/>
<line x1="292.3" y1="147.5" x2="355.0" y2="116.6" stroke="#d5dbe4" stroke-width="0.9"/>
<line x1="292.3" y1="147.5" x2="345.7" y2="176.2" stroke="#d5dbe4" stroke-width="0.9"/>
<line x1="292.3" y1="147.5" x2="361.0" y2="152.3" stroke="#d5dbe4" stroke-width="0.9"/>
<line x1="255.9" y1="118.0" x2="337.2" y2="91.1" stroke="#d5dbe4" stroke-width="0.9"/>
<line x1="255.9" y1="118.0" x2="355.0" y2="116.6" stroke="#d5dbe4" stroke-width="0.9"/>
<line x1="255.9" y1="118.0" x2="345.7" y2="176.2" stroke="#d5dbe4" stroke-width="0.9"/>
<line x1="255.9" y1="118.0" x2="361.0" y2="152.3" stroke="#d5dbe4" stroke-width="0.9"/>
<line x1="337.2" y1="91.1" x2="355.0" y2="116.6" stroke="#d5dbe4" stroke-width="0.9"/>
<line x1="337.2" y1="91.1" x2="345.7" y2="176.2" stroke="#d5dbe4" stroke-width="0.9"/>
<line x1="337.2" y1="91.1" x2="361.0" y2="152.3" stroke="#d5dbe4" stroke-width="0.9"/>
<line x1="355.0" y1="116.6" x2="345.7" y2="176.2" stroke="#d5dbe4" stroke-width="0.9"/>
<line x1="355.0" y1="116.6" x2="361.0" y2="152.3" stroke="#d5dbe4" stroke-width="0.9"/>
<line x1="652.3" y1="236.2" x2="616.6" y2="289.0" stroke="#d5dbe4" stroke-width="0.9"/>
<line x1="652.3" y1="236.2" x2="523.7" y2="235.4" stroke="#d5dbe4" stroke-width="0.9"/>
<line x1="586.3" y1="93.6" x2="550.2" y2="98.0" stroke="#d5dbe4" stroke-width="0.9"/>
<line x1="586.3" y1="93.6" x2="623.2" y2="116.2" stroke="#d5dbe4" stroke-width="0.9"/>
<line x1="586.3" y1="93.6" x2="490.5" y2="140.1" stroke="#d5dbe4" stroke-width="0.9"/>
<line x1="586.3" y1="93.6" x2="576.2" y2="126.1" stroke="#d5dbe4" stroke-width="0.9"/>
<line x1="1010.4" y1="276.1" x2="991.4" y2="232.5" stroke="#d5dbe4" stroke-width="0.9"/>
<line x1="1010.4" y1="276.1" x2="1075.9" y2="240.2" stroke="#d5dbe4" stroke-width="0.9"/>
<line x1="1010.4" y1="276.1" x2="1053.9" y2="280.5" stroke="#d5dbe4" stroke-width="0.9"/>
<line x1="550.2" y1="98.0" x2="623.2" y2="116.2" stroke="#d5dbe4" stroke-width="0.9"/>
<line x1="550.2" y1="98.0" x2="492.5" y2="92.2" stroke="#d5dbe4" stroke-width="0.9"/>
<line x1="550.2" y1="98.0" x2="490.5" y2="140.1" stroke="#d5dbe4" stroke-width="0.9"/>
<line x1="550.2" y1="98.0" x2="576.2" y2="126.1" stroke="#d5dbe4" stroke-width="0.9"/>
<line x1="616.6" y1="289.0" x2="523.7" y2="235.4" stroke="#d5dbe4" stroke-width="0.9"/>
<line x1="616.6" y1="289.0" x2="493.8" y2="267.9" stroke="#d5dbe4" stroke-width="0.9"/>
<line x1="623.2" y1="116.2" x2="685.8" y2="152.8" stroke="#d5dbe4" stroke-width="0.9"/>
<line x1="623.2" y1="116.2" x2="576.2" y2="126.1" stroke="#d5dbe4" stroke-width="0.9"/>
<line x1="934.3" y1="105.5" x2="939.0" y2="145.4" stroke="#d5dbe4" stroke-width="0.9"/>
<line x1="685.8" y1="152.8" x2="722.5" y2="69.8" stroke="#d5dbe4" stroke-width="0.9"/>
<line x1="685.8" y1="152.8" x2="705.2" y2="216.6" stroke="#d5dbe4" stroke-width="0.9"/>
<line x1="685.8" y1="152.8" x2="761.8" y2="145.3" stroke="#d5dbe4" stroke-width="0.9"/>
<line x1="991.4" y1="232.5" x2="1075.9" y2="240.2" stroke="#d5dbe4" stroke-width="0.9"/>
<line x1="991.4" y1="232.5" x2="1053.9" y2="280.5" stroke="#d5dbe4" stroke-width="0.9"/>
<line x1="466.0" y1="231.6" x2="432.7" y2="286.0" stroke="#d5dbe4" stroke-width="0.9"/>
<line x1="466.0" y1="231.6" x2="432.0" y2="202.9" stroke="#d5dbe4" stroke-width="0.9"/>
<line x1="466.0" y1="231.6" x2="560.9" y2="250.2" stroke="#d5dbe4" stroke-width="0.9"/>
<line x1="466.0" y1="231.6" x2="493.8" y2="267.9" stroke="#d5dbe4" stroke-width="0.9"/>
<line x1="492.5" y1="92.2" x2="490.5" y2="140.1" stroke="#d5dbe4" stroke-width="0.9"/>
<line x1="722.5" y1="69.8" x2="761.8" y2="145.3" stroke="#d5dbe4" stroke-width="0.9"/>
<line x1="490.5" y1="140.1" x2="345.7" y2="176.2" stroke="#d5dbe4" stroke-width="0.9"/>
<line x1="490.5" y1="140.1" x2="361.0" y2="152.3" stroke="#d5dbe4" stroke-width="0.9"/>
<line x1="490.5" y1="140.1" x2="576.2" y2="126.1" stroke="#d5dbe4" stroke-width="0.9"/>
<line x1="345.7" y1="176.2" x2="361.0" y2="152.3" stroke="#d5dbe4" stroke-width="0.9"/>
<line x1="230.3" y1="218.5" x2="523.7" y2="235.4" stroke="#d5dbe4" stroke-width="0.9"/>
<line x1="230.3" y1="218.5" x2="148.5" y2="143.7" stroke="#d5dbe4" stroke-width="0.9"/>
<line x1="230.3" y1="218.5" x2="242.6" y2="260.5" stroke="#d5dbe4" stroke-width="0.9"/>
<line x1="230.3" y1="218.5" x2="188.0" y2="196.5" stroke="#d5dbe4" stroke-width="0.9"/>
<line x1="230.3" y1="218.5" x2="128.9" y2="210.1" stroke="#d5dbe4" stroke-width="0.9"/>
<line x1="230.3" y1="218.5" x2="192.1" y2="239.0" stroke="#d5dbe4" stroke-width="0.9"/>
<line x1="230.3" y1="218.5" x2="188.4" y2="275.7" stroke="#d5dbe4" stroke-width="0.9"/>
<line x1="230.3" y1="218.5" x2="153.5" y2="276.2" stroke="#d5dbe4" stroke-width="0.9"/>
<line x1="1075.9" y1="240.2" x2="1053.9" y2="280.5" stroke="#d5dbe4" stroke-width="0.9"/>
<line x1="432.7" y1="286.0" x2="432.0" y2="202.9" stroke="#d5dbe4" stroke-width="0.9"/>
<line x1="432.7" y1="286.0" x2="493.8" y2="267.9" stroke="#d5dbe4" stroke-width="0.9"/>
<line x1="432.0" y1="202.9" x2="493.8" y2="267.9" stroke="#d5dbe4" stroke-width="0.9"/>
<line x1="148.5" y1="143.7" x2="188.0" y2="196.5" stroke="#d5dbe4" stroke-width="0.9"/>
<line x1="148.5" y1="143.7" x2="128.9" y2="210.1" stroke="#d5dbe4" stroke-width="0.9"/>
<line x1="242.6" y1="260.5" x2="188.0" y2="196.5" stroke="#d5dbe4" stroke-width="0.9"/>
<line x1="242.6" y1="260.5" x2="128.9" y2="210.1" stroke="#d5dbe4" stroke-width="0.9"/>
<line x1="242.6" y1="260.5" x2="192.1" y2="239.0" stroke="#d5dbe4" stroke-width="0.9"/>
<line x1="242.6" y1="260.5" x2="188.4" y2="275.7" stroke="#d5dbe4" stroke-width="0.9"/>
<line x1="242.6" y1="260.5" x2="153.5" y2="276.2" stroke="#d5dbe4" stroke-width="0.9"/>
<line x1="188.0" y1="196.5" x2="128.9" y2="210.1" stroke="#d5dbe4" stroke-width="0.9"/>
<line x1="188.0" y1="196.5" x2="192.1" y2="239.0" stroke="#d5dbe4" stroke-width="0.9"/>
<line x1="188.0" y1="196.5" x2="188.4" y2="275.7" stroke="#d5dbe4" stroke-width="0.9"/>
<line x1="188.0" y1="196.5" x2="153.5" y2="276.2" stroke="#d5dbe4" stroke-width="0.9"/>
<line x1="128.9" y1="210.1" x2="192.1" y2="239.0" stroke="#d5dbe4" stroke-width="0.9"/>
<line x1="128.9" y1="210.1" x2="188.4" y2="275.7" stroke="#d5dbe4" stroke-width="0.9"/>
<line x1="128.9" y1="210.1" x2="153.5" y2="276.2" stroke="#d5dbe4" stroke-width="0.9"/>
<line x1="192.1" y1="239.0" x2="188.4" y2="275.7" stroke="#d5dbe4" stroke-width="0.9"/>
<line x1="192.1" y1="239.0" x2="153.5" y2="276.2" stroke="#d5dbe4" stroke-width="0.9"/>
<line x1="188.4" y1="275.7" x2="153.5" y2="276.2" stroke="#d5dbe4" stroke-width="0.9"/>
</g>
<circle cx="127.1" cy="250.0" r="6.4" fill="#7c5cff" fill-opacity="0.95"/>
<circle cx="880.1" cy="70.3" r="3.0" fill="#00a3a3" fill-opacity="0.72"/>
<circle cx="1188.5" cy="176.4" r="3.0" fill="#9aa4b2" fill-opacity="0.72"/>
<circle cx="159.5" cy="233.5" r="5.4" fill="#7c5cff" fill-opacity="0.72"/>
<circle cx="603.5" cy="178.9" r="5.4" fill="#e08d1a" fill-opacity="0.72"/>
<circle cx="675.9" cy="96.8" r="5.4" fill="#1b7fd4" fill-opacity="0.72"/>
<circle cx="934.0" cy="185.3" r="5.4" fill="#6e7b8b" fill-opacity="0.72"/>
<circle cx="1061.5" cy="75.5" r="5.4" fill="#6e7b8b" fill-opacity="0.72"/>
<circle cx="578.9" cy="156.3" r="7.8" fill="#e08d1a" fill-opacity="0.72"/>
<circle cx="732.6" cy="264.3" r="5.4" fill="#00a3a3" fill-opacity="0.72"/>
<circle cx="795.4" cy="240.0" r="5.4" fill="#00a3a3" fill-opacity="0.72"/>
<circle cx="974.0" cy="106.8" r="3.0" fill="#6e7b8b" fill-opacity="0.72"/>
<circle cx="873.7" cy="201.3" r="6.4" fill="#00a3a3" fill-opacity="0.72"/>
<circle cx="837.6" cy="152.7" r="3.0" fill="#00a3a3" fill-opacity="0.95"/>
<circle cx="859.1" cy="308.5" r="3.0" fill="#00a3a3" fill-opacity="0.72"/>
<circle cx="355.5" cy="239.0" r="3.0" fill="#0f9d58" fill-opacity="0.72"/>
<circle cx="1044.7" cy="194.7" r="5.4" fill="#6e7b8b" fill-opacity="0.72"/>
<circle cx="1031.6" cy="233.4" r="5.4" fill="#6e7b8b" fill-opacity="0.72"/>
<circle cx="413.0" cy="247.6" r="5.4" fill="#d1495b" fill-opacity="0.72"/>
<circle cx="885.3" cy="143.6" r="5.4" fill="#6e7b8b" fill-opacity="0.72"/>
<circle cx="544.0" cy="153.3" r="5.4" fill="#e08d1a" fill-opacity="0.72"/>
<circle cx="832.2" cy="45.2" r="5.4" fill="#00a3a3" fill-opacity="0.72"/>
<circle cx="759.4" cy="100.0" r="5.4" fill="#1b7fd4" fill-opacity="0.72"/>
<circle cx="988.1" cy="143.3" r="6.4" fill="#6e7b8b" fill-opacity="0.72"/>
<circle cx="1106.1" cy="191.0" r="5.4" fill="#6e7b8b" fill-opacity="0.72"/>
<circle cx="1038.8" cy="132.9" r="5.4" fill="#6e7b8b" fill-opacity="0.72"/>
<circle cx="509.7" cy="173.0" r="5.4" fill="#e08d1a" fill-opacity="0.72"/>
<circle cx="632.0" cy="149.8" r="5.4" fill="#e08d1a" fill-opacity="0.72"/>
<circle cx="560.4" cy="185.2" r="5.4" fill="#e08d1a" fill-opacity="0.72"/>
<circle cx="535.2" cy="124.3" r="5.4" fill="#e08d1a" fill-opacity="0.72"/>
<circle cx="733.5" cy="181.2" r="5.4" fill="#1b7fd4" fill-opacity="0.72"/>
<circle cx="716.9" cy="143.6" r="6.4" fill="#1b7fd4" fill-opacity="0.72"/>
<circle cx="680.7" cy="287.1" r="5.4" fill="#1b7fd4" fill-opacity="0.72"/>
<circle cx="711.4" cy="108.8" r="6.4" fill="#1b7fd4" fill-opacity="0.72"/>
<circle cx="973.8" cy="179.2" r="5.4" fill="#6e7b8b" fill-opacity="0.72"/>
<circle cx="608.7" cy="246.7" r="3.0" fill="#1b7fd4" fill-opacity="0.72"/>
<circle cx="569.9" cy="294.0" r="3.0" fill="#6e7b8b" fill-opacity="0.72"/>
<circle cx="156.7" cy="190.8" r="3.0" fill="#7c5cff" fill-opacity="0.95"/>
<circle cx="1088.6" cy="139.3" r="3.0" fill="#6e7b8b" fill-opacity="0.72"/>
<circle cx="311.9" cy="246.3" r="5.4" fill="#0f9d58" fill-opacity="0.72"/>
<circle cx="318.0" cy="160.7" r="3.0" fill="#0f9d58" fill-opacity="0.72"/>
<circle cx="306.7" cy="187.3" r="3.0" fill="#0f9d58" fill-opacity="0.72"/>
<circle cx="277.9" cy="175.3" r="3.0" fill="#0f9d58" fill-opacity="0.72"/>
<circle cx="313.6" cy="111.8" r="3.0" fill="#0f9d58" fill-opacity="0.72"/>
<circle cx="330.6" cy="134.9" r="3.0" fill="#0f9d58" fill-opacity="0.72"/>
<circle cx="275.9" cy="90.6" r="3.0" fill="#0f9d58" fill-opacity="0.72"/>
<circle cx="306.3" cy="81.5" r="3.0" fill="#0f9d58" fill-opacity="0.72"/>
<circle cx="285.8" cy="119.7" r="3.0" fill="#0f9d58" fill-opacity="0.72"/>
<circle cx="259.8" cy="149.2" r="3.0" fill="#0f9d58" fill-opacity="0.72"/>
<circle cx="292.3" cy="147.5" r="3.0" fill="#0f9d58" fill-opacity="0.72"/>
<circle cx="255.9" cy="118.0" r="3.0" fill="#0f9d58" fill-opacity="0.72"/>
<circle cx="337.2" cy="91.1" r="3.0" fill="#0f9d58" fill-opacity="0.72"/>
<circle cx="355.0" cy="116.6" r="3.0" fill="#0f9d58" fill-opacity="0.72"/>
<circle cx="652.3" cy="236.2" r="3.0" fill="#1b7fd4" fill-opacity="0.72"/>
<circle cx="849.4" cy="249.2" r="5.4" fill="#00a3a3" fill-opacity="0.72"/>
<circle cx="586.3" cy="93.6" r="5.4" fill="#e08d1a" fill-opacity="0.72"/>
<circle cx="1010.4" cy="276.1" r="5.4" fill="#6e7b8b" fill-opacity="0.72"/>
<circle cx="963.6" cy="297.9" r="6.4" fill="#6e7b8b" fill-opacity="0.72"/>
<circle cx="835.1" cy="102.1" r="5.4" fill="#00a3a3" fill-opacity="0.72"/>
<circle cx="550.2" cy="98.0" r="5.4" fill="#e08d1a" fill-opacity="0.72"/>
<circle cx="616.6" cy="289.0" r="5.4" fill="#1b7fd4" fill-opacity="0.72"/>
<circle cx="821.5" cy="198.9" r="5.4" fill="#00a3a3" fill-opacity="0.72"/>
<circle cx="896.3" cy="261.6" r="5.4" fill="#00a3a3" fill-opacity="0.72"/>
<circle cx="623.2" cy="116.2" r="9.3" fill="#e08d1a" fill-opacity="0.95"/>
<circle cx="934.3" cy="105.5" r="3.0" fill="#6e7b8b" fill-opacity="0.72"/>
<circle cx="685.8" cy="152.8" r="5.4" fill="#1b7fd4" fill-opacity="0.72"/>
<circle cx="991.4" cy="232.5" r="3.0" fill="#6e7b8b" fill-opacity="0.72"/>
<circle cx="466.0" cy="231.6" r="5.4" fill="#d1495b" fill-opacity="0.95"/>
<circle cx="551.6" cy="42.0" r="5.4" fill="#e08d1a" fill-opacity="0.72"/>
<circle cx="492.5" cy="92.2" r="6.4" fill="#e08d1a" fill-opacity="0.72"/>
<circle cx="722.5" cy="69.8" r="5.4" fill="#1b7fd4" fill-opacity="0.72"/>
<circle cx="490.5" cy="140.1" r="7.2" fill="#e08d1a" fill-opacity="0.95"/>
<circle cx="1005.1" cy="54.5" r="5.4" fill="#6e7b8b" fill-opacity="0.72"/>
<circle cx="345.7" cy="176.2" r="5.4" fill="#0f9d58" fill-opacity="0.95"/>
<circle cx="361.0" cy="152.3" r="6.4" fill="#0f9d58" fill-opacity="0.95"/>
<circle cx="230.3" cy="218.5" r="5.4" fill="#7c5cff" fill-opacity="0.72"/>
<circle cx="523.7" cy="235.4" r="3.0" fill="#1b7fd4" fill-opacity="0.72"/>
<circle cx="705.2" cy="216.6" r="5.4" fill="#1b7fd4" fill-opacity="0.72"/>
<circle cx="798.8" cy="293.3" r="5.4" fill="#00a3a3" fill-opacity="0.72"/>
<circle cx="939.0" cy="145.4" r="5.4" fill="#6e7b8b" fill-opacity="0.72"/>
<circle cx="1075.9" cy="240.2" r="5.4" fill="#6e7b8b" fill-opacity="0.72"/>
<circle cx="761.8" cy="145.3" r="6.4" fill="#1b7fd4" fill-opacity="0.72"/>
<circle cx="1053.9" cy="280.5" r="7.8" fill="#6e7b8b" fill-opacity="0.72"/>
<circle cx="526.8" cy="312.0" r="8.4" fill="#e08d1a" fill-opacity="0.72"/>
<circle cx="432.7" cy="286.0" r="3.0" fill="#d1495b" fill-opacity="0.72"/>
<circle cx="432.0" cy="202.9" r="5.4" fill="#d1495b" fill-opacity="0.95"/>
<circle cx="560.9" cy="250.2" r="3.0" fill="#d1495b" fill-opacity="0.72"/>
<circle cx="576.2" cy="126.1" r="3.0" fill="#e08d1a" fill-opacity="0.72"/>
<circle cx="493.8" cy="267.9" r="3.0" fill="#d1495b" fill-opacity="0.72"/>
<circle cx="148.5" cy="143.7" r="7.2" fill="#7c5cff" fill-opacity="0.95"/>
<circle cx="85.2" cy="123.2" r="3.0" fill="#7c5cff" fill-opacity="0.72"/>
<circle cx="242.6" cy="260.5" r="5.4" fill="#7c5cff" fill-opacity="0.72"/>
<circle cx="188.0" cy="196.5" r="5.4" fill="#7c5cff" fill-opacity="0.72"/>
<circle cx="128.9" cy="210.1" r="3.0" fill="#7c5cff" fill-opacity="0.72"/>
<circle cx="192.1" cy="239.0" r="3.0" fill="#7c5cff" fill-opacity="0.72"/>
<circle cx="188.4" cy="275.7" r="3.0" fill="#7c5cff" fill-opacity="0.72"/>
<circle cx="153.5" cy="276.2" r="3.0" fill="#7c5cff" fill-opacity="0.72"/>
<text x="127.1" y="235.6" font-family="ui-monospace,SFMono-Regular,Menlo,monospace" font-size="11" fill="#3a4149" text-anchor="middle" stroke="#ffffff" stroke-width="3.5" paint-order="stroke">flow-scikit</text>
<text x="837.6" y="141.7" font-family="ui-monospace,SFMono-Regular,Menlo,monospace" font-size="11" fill="#3a4149" text-anchor="middle" stroke="#ffffff" stroke-width="3.5" paint-order="stroke">wfdl-gallery</text>
<text x="156.7" y="179.8" font-family="ui-monospace,SFMono-Regular,Menlo,monospace" font-size="11" fill="#3a4149" text-anchor="middle" stroke="#ffffff" stroke-width="3.5" paint-order="stroke">flowrat</text>
<text x="623.2" y="98.9" font-family="ui-monospace,SFMono-Regular,Menlo,monospace" font-size="11" fill="#3a4149" text-anchor="middle" stroke="#ffffff" stroke-width="3.5" paint-order="stroke">tinyML</text>
<text x="466.0" y="218.2" font-family="ui-monospace,SFMono-Regular,Menlo,monospace" font-size="11" fill="#3a4149" text-anchor="middle" stroke="#ffffff" stroke-width="3.5" paint-order="stroke">perturbation-kernel</text>
<text x="490.5" y="124.9" font-family="ui-monospace,SFMono-Regular,Menlo,monospace" font-size="11" fill="#3a4149" text-anchor="middle" stroke="#ffffff" stroke-width="3.5" paint-order="stroke">danzig</text>
<text x="345.7" y="162.8" font-family="ui-monospace,SFMono-Regular,Menlo,monospace" font-size="11" fill="#3a4149" text-anchor="middle" stroke="#ffffff" stroke-width="3.5" paint-order="stroke">azazel</text>
<text x="361.0" y="137.9" font-family="ui-monospace,SFMono-Regular,Menlo,monospace" font-size="11" fill="#3a4149" text-anchor="middle" stroke="#ffffff" stroke-width="3.5" paint-order="stroke">zaza</text>
<text x="432.0" y="189.5" font-family="ui-monospace,SFMono-Regular,Menlo,monospace" font-size="11" fill="#3a4149" text-anchor="middle" stroke="#ffffff" stroke-width="3.5" paint-order="stroke">citeverify</text>
<text x="148.5" y="128.6" font-family="ui-monospace,SFMono-Regular,Menlo,monospace" font-size="11" fill="#3a4149" text-anchor="middle" stroke="#ffffff" stroke-width="3.5" paint-order="stroke">flow</text>
<circle cx="34" cy="344" r="4" fill="#7c5cff"/>
<text x="44" y="348" font-family="ui-monospace,SFMono-Regular,Menlo,monospace" font-size="10.5" fill="#3a4149" fill-opacity="0.8">flow</text>
<circle cx="81.6" cy="344" r="4" fill="#0f9d58"/>
<text x="91.6" y="348" font-family="ui-monospace,SFMono-Regular,Menlo,monospace" font-size="10.5" fill="#3a4149" fill-opacity="0.8">build systems</text>
<circle cx="186.8" cy="344" r="4" fill="#d1495b"/>
<text x="196.8" y="348" font-family="ui-monospace,SFMono-Regular,Menlo,monospace" font-size="10.5" fill="#3a4149" fill-opacity="0.8">research tooling</text>
<circle cx="311.20000000000005" cy="344" r="4" fill="#e08d1a"/>
<text x="321.20000000000005" y="348" font-family="ui-monospace,SFMono-Regular,Menlo,monospace" font-size="10.5" fill="#3a4149" fill-opacity="0.8">audio</text>
<circle cx="365.20000000000005" cy="344" r="4" fill="#1b7fd4"/>
<text x="375.20000000000005" y="348" font-family="ui-monospace,SFMono-Regular,Menlo,monospace" font-size="10.5" fill="#3a4149" fill-opacity="0.8">ML</text>
<circle cx="400.00000000000006" cy="344" r="4" fill="#00a3a3"/>
<text x="410.00000000000006" y="348" font-family="ui-monospace,SFMono-Regular,Menlo,monospace" font-size="10.5" fill="#3a4149" fill-opacity="0.8">graphics</text>
<circle cx="473.20000000000005" cy="344" r="4" fill="#6e7b8b"/>
<text x="483.20000000000005" y="348" font-family="ui-monospace,SFMono-Regular,Menlo,monospace" font-size="10.5" fill="#3a4149" fill-opacity="0.8">tools</text>
</svg>