<svg xmlns="http://www.w3.org/2000/svg" width="1280" height="360" viewBox="0 0 1280 360" role="img" aria-label="Repository constellation">
<rect width="1280" height="360" fill="#ffffff"/>
<g stroke-linecap="round">
<line x1="830.1" y1="123.5" x2="824.5" y2="67.9" stroke="#d5dbe4" stroke-width="0.9"/>
<line x1="620.7" y1="103.7" x2="710.1" y2="131.3" stroke="#d5dbe4" stroke-width="0.9"/>
<line x1="620.7" y1="103.7" x2="541.3" y2="112.1" stroke="#d5dbe4" stroke-width="0.9"/>
<line x1="620.7" y1="103.7" x2="555.7" y2="166.4" stroke="#d5dbe4" stroke-width="0.9"/>
<line x1="620.7" y1="103.7" x2="628.3" y2="137.3" stroke="#d5dbe4" stroke-width="0.9"/>
<line x1="620.7" y1="103.7" x2="597.1" y2="162.2" stroke="#d5dbe4" stroke-width="0.9"/>
<line x1="620.7" y1="103.7" x2="549.0" y2="78.2" stroke="#d5dbe4" stroke-width="0.9"/>
<line x1="620.7" y1="103.7" x2="581.9" y2="76.3" stroke="#d5dbe4" stroke-width="0.9"/>
<line x1="620.7" y1="103.7" x2="568.6" y2="137.2" stroke="#d5dbe4" stroke-width="0.9"/>
<line x1="620.7" y1="103.7" x2="687.1" y2="106.2" stroke="#d5dbe4" stroke-width="0.9"/>
<line x1="620.7" y1="103.7" x2="684.9" y2="153.7" stroke="#d5dbe4" stroke-width="0.9"/>
<line x1="620.7" y1="103.7" x2="532.7" y2="142.3" stroke="#d5dbe4" stroke-width="0.9"/>
<line x1="620.7" y1="103.7" x2="580.6" y2="108.6" stroke="#d5dbe4" stroke-width="0.9"/>
<line x1="926.4" y1="139.9" x2="935.1" y2="181.9" stroke="#d5dbe4" stroke-width="0.9"/>
<line x1="926.4" y1="139.9" x2="970.8" y2="159.0" stroke="#d5dbe4" stroke-width="0.9"/>
<line x1="926.4" y1="139.9" x2="932.6" y2="97.2" stroke="#d5dbe4" stroke-width="0.9"/>
<line x1="926.4" y1="139.9" x2="874.5" y2="136.0" stroke="#d5dbe4" stroke-width="0.9"/>
<line x1="926.4" y1="139.9" x2="971.5" y2="115.6" stroke="#d5dbe4" stroke-width="0.9"/>
<line x1="710.1" y1="131.3" x2="744.2" y2="148.0" stroke="#d5dbe4" stroke-width="0.9"/>
<line x1="710.1" y1="131.3" x2="698.8" y2="207.7" stroke="#d5dbe4" stroke-width="0.9"/>
<line x1="710.1" y1="131.3" x2="701.1" y2="67.9" stroke="#d5dbe4" stroke-width="0.9"/>
<line x1="710.1" y1="131.3" x2="736.2" y2="184.6" stroke="#d5dbe4" stroke-width="0.9"/>
<line x1="710.1" y1="131.3" x2="760.0" y2="119.4" stroke="#d5dbe4" stroke-width="0.9"/>
<line x1="710.1" y1="131.3" x2="687.1" y2="106.2" stroke="#d5dbe4" stroke-width="0.9"/>
<line x1="710.1" y1="131.3" x2="741.4" y2="83.5" stroke="#d5dbe4" stroke-width="0.9"/>
<line x1="710.1" y1="131.3" x2="684.9" y2="153.7" stroke="#d5dbe4" stroke-width="0.9"/>
<line x1="998.1" y1="263.7" x2="964.4" y2="290.2" stroke="#d5dbe4" stroke-width="0.9"/>
<line x1="998.1" y1="263.7" x2="1040.8" y2="263.8" stroke="#d5dbe4" stroke-width="0.9"/>
<line x1="998.1" y1="263.7" x2="1013.5" y2="305.4" stroke="#d5dbe4" stroke-width="0.9"/>
<line x1="998.1" y1="263.7" x2="1009.7" y2="222.5" stroke="#d5dbe4" stroke-width="0.9"/>
<line x1="998.1" y1="263.7" x2="963.4" y2="238.5" stroke="#d5dbe4" stroke-width="0.9"/>
<line x1="461.5" y1="270.0" x2="440.4" y2="198.9" stroke="#d5dbe4" stroke-width="0.9"/>
<line x1="461.5" y1="270.0" x2="415.2" y2="231.3" stroke="#d5dbe4" stroke-width="0.9"/>
<line x1="461.5" y1="270.0" x2="414.4" y2="274.9" stroke="#d5dbe4" stroke-width="0.9"/>
<line x1="461.5" y1="270.0" x2="556.2" y2="282.7" stroke="#d5dbe4" stroke-width="0.9"/>
<line x1="461.5" y1="270.0" x2="491.5" y2="228.2" stroke="#d5dbe4" stroke-width="0.9"/>
<line x1="935.1" y1="181.9" x2="970.8" y2="159.0" stroke="#d5dbe4" stroke-width="0.9"/>
<line x1="935.1" y1="181.9" x2="932.6" y2="97.2" stroke="#d5dbe4" stroke-width="0.9"/>
<line x1="935.1" y1="181.9" x2="874.5" y2="136.0" stroke="#d5dbe4" stroke-width="0.9"/>
<line x1="935.1" y1="181.9" x2="971.5" y2="115.6" stroke="#d5dbe4" stroke-width="0.9"/>
<line x1="501.0" y1="168.0" x2="488.6" y2="121.2" stroke="#d5dbe4" stroke-width="0.9"/>
<line x1="501.0" y1="168.0" x2="541.3" y2="112.1" stroke="#d5dbe4" stroke-width="0.9"/>
<line x1="501.0" y1="168.0" x2="555.7" y2="166.4" stroke="#d5dbe4" stroke-width="0.9"/>
<line x1="501.0" y1="168.0" x2="510.7" y2="86.1" stroke="#d5dbe4" stroke-width="0.9"/>
<line x1="501.0" y1="168.0" x2="568.6" y2="137.2" stroke="#d5dbe4" stroke-width="0.9"/>
<line x1="645.8" y1="279.5" x2="603.3" y2="257.8" stroke="#d5dbe4" stroke-width="0.9"/>
<line x1="645.8" y1="279.5" x2="522.5" y2="254.1" stroke="#d5dbe4" stroke-width="0.9"/>
<line x1="645.8" y1="279.5" x2="619.5" y2="220.8" stroke="#d5dbe4" stroke-width="0.9"/>
<line x1="315.7" y1="110.8" x2="290.5" y2="200.8" stroke="#d5dbe4" stroke-width="0.9"/>
<line x1="315.7" y1="110.8" x2="325.0" y2="144.9" stroke="#d5dbe4" stroke-width="0.9"/>
<line x1="315.7" y1="110.8" x2="317.1" y2="209.9" stroke="#d5dbe4" stroke-width="0.9"/>
<line x1="315.7" y1="110.8" x2="263.2" y2="125.8" stroke="#d5dbe4" stroke-width="0.9"/>
<line x1="315.7" y1="110.8" x2="290.4" y2="165.0" stroke="#d5dbe4" stroke-width="0.9"/>
<line x1="315.7" y1="110.8" x2="317.6" y2="175.7" stroke="#d5dbe4" stroke-width="0.9"/>
<line x1="315.7" y1="110.8" x2="294.5" y2="136.6" stroke="#d5dbe4" stroke-width="0.9"/>
<line x1="315.7" y1="110.8" x2="286.5" y2="105.7" stroke="#d5dbe4" stroke-width="0.9"/>
<line x1="315.7" y1="110.8" x2="266.4" y2="183.1" stroke="#d5dbe4" stroke-width="0.9"/>
<line x1="315.7" y1="110.8" x2="350.9" y2="166.9" stroke="#d5dbe4" stroke-width="0.9"/>
<line x1="315.7" y1="110.8" x2="343.3" y2="194.8" stroke="#d5dbe4" stroke-width="0.9"/>
<line x1="315.7" y1="110.8" x2="346.2" y2="115.8" stroke="#d5dbe4" stroke-width="0.9"/>
<line x1="315.7" y1="110.8" x2="362.2" y2="138.0" stroke="#d5dbe4" stroke-width="0.9"/>
<line x1="315.7" y1="110.8" x2="258.2" y2="154.0" stroke="#d5dbe4" stroke-width="0.9"/>
<line x1="817.7" y1="178.1" x2="838.7" y2="226.7" stroke="#d5dbe4" stroke-width="0.9"/>
<line x1="817.7" y1="178.1" x2="870.7" y2="186.1" stroke="#d5dbe4" stroke-width="0.9"/>
<line x1="744.2" y1="148.0" x2="701.1" y2="67.9" stroke="#d5dbe4" stroke-width="0.9"/>
<line x1="744.2" y1="148.0" x2="687.1" y2="106.2" stroke="#d5dbe4" stroke-width="0.9"/>
<line x1="744.2" y1="148.0" x2="741.4" y2="83.5" stroke="#d5dbe4" stroke-width="0.9"/>
<line x1="744.2" y1="148.0" x2="684.9" y2="153.7" stroke="#d5dbe4" stroke-width="0.9"/>
<line x1="290.5" y1="200.8" x2="325.0" y2="144.9" stroke="#d5dbe4" stroke-width="0.9"/>
<line x1="290.5" y1="200.8" x2="317.1" y2="209.9" stroke="#d5dbe4" stroke-width="0.9"/>
<line x1="290.5" y1="200.8" x2="263.2" y2="125.8" stroke="#d5dbe4" stroke-width="0.9"/>
<line x1="290.5" y1="200.8" x2="290.4" y2="165.0" stroke="#d5dbe4" stroke-width="0.9"/>
<line x1="290.5" y1="200.8" x2="317.6" y2="175.7" stroke="#d5dbe4" stroke-width="0.9"/>
<line x1="290.5" y1="200.8" x2="294.5" y2="136.6" stroke="#d5dbe4" stroke-width="0.9"/>
<line x1="290.5" y1="200.8" x2="286.5" y2="105.7" stroke="#d5dbe4" stroke-width="0.9"/>
<line x1="290.5" y1="200.8" x2="266.4" y2="183.1" stroke="#d5dbe4" stroke-width="0.9"/>
<line x1="290.5" y1="200.8" x2="350.9" y2="166.9" stroke="#d5dbe4" stroke-width="0.9"/>
<line x1="290.5" y1="200.8" x2="343.3" y2="194.8" stroke="#d5dbe4" stroke-width="0.9"/>
<line x1="290.5" y1="200.8" x2="346.2" y2="115.8" stroke="#d5dbe4" stroke-width="0.9"/>
<line x1="290.5" y1="200.8" x2="362.2" y2="138.0" stroke="#d5dbe4" stroke-width="0.9"/>
<line x1="290.5" y1="200.8" x2="258.2" y2="154.0" stroke="#d5dbe4" stroke-width="0.9"/>
<line x1="325.0" y1="144.9" x2="317.1" y2="209.9" stroke="#d5dbe4" stroke-width="0.9"/>
<line x1="325.0" y1="144.9" x2="263.2" y2="125.8" stroke="#d5dbe4" stroke-width="0.9"/>
<line x1="325.0" y1="144.9" x2="290.4" y2="165.0" stroke="#d5dbe4" stroke-width="0.9"/>
<line x1="325.0" y1="144.9" x2="317.6" y2="175.7" stroke="#d5dbe4" stroke-width="0.9"/>
<line x1="325.0" y1="144.9" x2="294.5" y2="136.6" stroke="#d5dbe4" stroke-width="0.9"/>
<line x1="325.0" y1="144.9" x2="286.5" y2="105.7" stroke="#d5dbe4" stroke-width="0.9"/>
<line x1="325.0" y1="144.9" x2="266.4" y2="183.1" stroke="#d5dbe4" stroke-width="0.9"/>
<line x1="325.0" y1="144.9" x2="350.9" y2="166.9" stroke="#d5dbe4" stroke-width="0.9"/>
<line x1="325.0" y1="144.9" x2="343.3" y2="194.8" stroke="#d5dbe4" stroke-width="0.9"/>
<line x1="325.0" y1="144.9" x2="346.2" y2="115.8" stroke="#d5dbe4" stroke-width="0.9"/>
<line x1="325.0" y1="144.9" x2="362.2" y2="138.0" stroke="#d5dbe4" stroke-width="0.9"/>
<line x1="325.0" y1="144.9" x2="258.2" y2="154.0" stroke="#d5dbe4" stroke-width="0.9"/>
<line x1="317.1" y1="209.9" x2="263.2" y2="125.8" stroke="#d5dbe4" stroke-width="0.9"/>
<line x1="317.1" y1="209.9" x2="290.4" y2="165.0" stroke="#d5dbe4" stroke-width="0.9"/>
<line x1="317.1" y1="209.9" x2="317.6" y2="175.7" stroke="#d5dbe4" stroke-width="0.9"/>
<line x1="317.1" y1="209.9" x2="294.5" y2="136.6" stroke="#d5dbe4" stroke-width="0.9"/>
<line x1="317.1" y1="209.9" x2="286.5" y2="105.7" stroke="#d5dbe4" stroke-width="0.9"/>
<line x1="317.1" y1="209.9" x2="266.4" y2="183.1" stroke="#d5dbe4" stroke-width="0.9"/>
<line x1="317.1" y1="209.9" x2="350.9" y2="166.9" stroke="#d5dbe4" stroke-width="0.9"/>
<line x1="317.1" y1="209.9" x2="343.3" y2="194.8" stroke="#d5dbe4" stroke-width="0.9"/>
<line x1="317.1" y1="209.9" x2="346.2" y2="115.8" stroke="#d5dbe4" stroke-width="0.9"/>
<line x1="317.1" y1="209.9" x2="362.2" y2="138.0" stroke="#d5dbe4" stroke-width="0.9"/>
<line x1="317.1" y1="209.9" x2="258.2" y2="154.0" stroke="#d5dbe4" stroke-width="0.9"/>
<line x1="263.2" y1="125.8" x2="290.4" y2="165.0" stroke="#d5dbe4" stroke-width="0.9"/>
<line x1="263.2" y1="125.8" x2="317.6" y2="175.7" stroke="#d5dbe4" stroke-width="0.9"/>
<line x1="263.2" y1="125.8" x2="294.5" y2="136.6" stroke="#d5dbe4" stroke-width="0.9"/>
<line x1="263.2" y1="125.8" x2="286.5" y2="105.7" stroke="#d5dbe4" stroke-width="0.9"/>
<line x1="263.2" y1="125.8" x2="266.4" y2="183.1" stroke="#d5dbe4" stroke-width="0.9"/>
<line x1="263.2" y1="125.8" x2="350.9" y2="166.9" stroke="#d5dbe4" stroke-width="0.9"/>
<line x1="263.2" y1="125.8" x2="343.3" y2="194.8" stroke="#d5dbe4" stroke-width="0.9"/>
<line x1="263.2" y1="125.8" x2="346.2" y2="115.8" stroke="#d5dbe4" stroke-width="0.9"/>
<line x1="263.2" y1="125.8" x2="362.2" y2="138.0" stroke="#d5dbe4" stroke-width="0.9"/>
<line x1="263.2" y1="125.8" x2="258.2" y2="154.0" stroke="#d5dbe4" stroke-width="0.9"/>
<line x1="290.4" y1="165.0" x2="317.6" y2="175.7" stroke="#d5dbe4" stroke-width="0.9"/>
<line x1="290.4" y1="165.0" x2="294.5" y2="136.6" stroke="#d5dbe4" stroke-width="0.9"/>
<line x1="290.4" y1="165.0" x2="286.5" y2="105.7" stroke="#d5dbe4" stroke-width="0.9"/>
<line x1="290.4" y1="165.0" x2="266.4" y2="183.1" stroke="#d5dbe4" stroke-width="0.9"/>
<line x1="290.4" y1="165.0" x2="350.9" y2="166.9" stroke="#d5dbe4" stroke-width="0.9"/>
<line x1="290.4" y1="165.0" x2="343.3" y2="194.8" stroke="#d5dbe4" stroke-width="0.9"/>
<line x1="290.4" y1="165.0" x2="346.2" y2="115.8" stroke="#d5dbe4" stroke-width="0.9"/>
<line x1="290.4" y1="165.0" x2="362.2" y2="138.0" stroke="#d5dbe4" stroke-width="0.9"/>
<line x1="290.4" y1="165.0" x2="258.2" y2="154.0" stroke="#d5dbe4" stroke-width="0.9"/>
<line x1="317.6" y1="175.7" x2="294.5" y2="136.6" stroke="#d5dbe4" stroke-width="0.9"/>
<line x1="317.6" y1="175.7" x2="286.5" y2="105.7" stroke="#d5dbe4" stroke-width="0.9"/>
<line x1="317.6" y1="175.7" x2="266.4" y2="183.1" stroke="#d5dbe4" stroke-width="0.9"/>
<line x1="317.6" y1="175.7" x2="350.9" y2="166.9" stroke="#d5dbe4" stroke-width="0.9"/>
<line x1="317.6" y1="175.7" x2="343.3" y2="194.8" stroke="#d5dbe4" stroke-width="0.9"/>
<line x1="317.6" y1="175.7" x2="346.2" y2="115.8" stroke="#d5dbe4" stroke-width="0.9"/>
<line x1="317.6" y1="175.7" x2="362.2" y2="138.0" stroke="#d5dbe4" stroke-width="0.9"/>
<line x1="317.6" y1="175.7" x2="258.2" y2="154.0" stroke="#d5dbe4" stroke-width="0.9"/>
<line x1="294.5" y1="136.6" x2="286.5" y2="105.7" stroke="#d5dbe4" stroke-width="0.9"/>
<line x1="294.5" y1="136.6" x2="266.4" y2="183.1" stroke="#d5dbe4" stroke-width="0.9"/>
<line x1="294.5" y1="136.6" x2="350.9" y2="166.9" stroke="#d5dbe4" stroke-width="0.9"/>
<line x1="294.5" y1="136.6" x2="343.3" y2="194.8" stroke="#d5dbe4" stroke-width="0.9"/>
<line x1="294.5" y1="136.6" x2="346.2" y2="115.8" stroke="#d5dbe4" stroke-width="0.9"/>
<line x1="294.5" y1="136.6" x2="362.2" y2="138.0" stroke="#d5dbe4" stroke-width="0.9"/>
<line x1="294.5" y1="136.6" x2="258.2" y2="154.0" stroke="#d5dbe4" stroke-width="0.9"/>
<line x1="286.5" y1="105.7" x2="266.4" y2="183.1" stroke="#d5dbe4" stroke-width="0.9"/>
<line x1="286.5" y1="105.7" x2="350.9" y2="166.9" stroke="#d5dbe4" stroke-width="0.9"/>
<line x1="286.5" y1="105.7" x2="343.3" y2="194.8" stroke="#d5dbe4" stroke-width="0.9"/>
<line x1="286.5" y1="105.7" x2="346.2" y2="115.8" stroke="#d5dbe4" stroke-width="0.9"/>
<line x1="286.5" y1="105.7" x2="362.2" y2="138.0" stroke="#d5dbe4" stroke-width="0.9"/>
<line x1="286.5" y1="105.7" x2="258.2" y2="154.0" stroke="#d5dbe4" stroke-width="0.9"/>
<line x1="266.4" y1="183.1" x2="350.9" y2="166.9" stroke="#d5dbe4" stroke-width="0.9"/>
<line x1="266.4" y1="183.1" x2="343.3" y2="194.8" stroke="#d5dbe4" stroke-width="0.9"/>
<line x1="266.4" y1="183.1" x2="346.2" y2="115.8" stroke="#d5dbe4" stroke-width="0.9"/>
<line x1="266.4" y1="183.1" x2="362.2" y2="138.0" stroke="#d5dbe4" stroke-width="0.9"/>
<line x1="266.4" y1="183.1" x2="258.2" y2="154.0" stroke="#d5dbe4" stroke-width="0.9"/>
<line x1="350.9" y1="166.9" x2="343.3" y2="194.8" stroke="#d5dbe4" stroke-width="0.9"/>
<line x1="350.9" y1="166.9" x2="346.2" y2="115.8" stroke="#d5dbe4" stroke-width="0.9"/>
<line x1="350.9" y1="166.9" x2="362.2" y2="138.0" stroke="#d5dbe4" stroke-width="0.9"/>
<line x1="350.9" y1="166.9" x2="258.2" y2="154.0" stroke="#d5dbe4" stroke-width="0.9"/>
<line x1="343.3" y1="194.8" x2="346.2" y2="115.8" stroke="#d5dbe4" stroke-width="0.9"/>
<line x1="343.3" y1="194.8" x2="362.2" y2="138.0" stroke="#d5dbe4" stroke-width="0.9"/>
<line x1="343.3" y1="194.8" x2="258.2" y2="154.0" stroke="#d5dbe4" stroke-width="0.9"/>
<line x1="564.2" y1="224.6" x2="246.7" y2="231.6" stroke="#d5dbe4" stroke-width="0.9"/>
<line x1="488.6" y1="121.2" x2="346.2" y2="115.8" stroke="#d5dbe4" stroke-width="0.9"/>
<line x1="488.6" y1="121.2" x2="362.2" y2="138.0" stroke="#d5dbe4" stroke-width="0.9"/>
<line x1="488.6" y1="121.2" x2="541.3" y2="112.1" stroke="#d5dbe4" stroke-width="0.9"/>
<line x1="488.6" y1="121.2" x2="555.7" y2="166.4" stroke="#d5dbe4" stroke-width="0.9"/>
<line x1="488.6" y1="121.2" x2="628.3" y2="137.3" stroke="#d5dbe4" stroke-width="0.9"/>
<line x1="488.6" y1="121.2" x2="510.7" y2="86.1" stroke="#d5dbe4" stroke-width="0.9"/>
<line x1="488.6" y1="121.2" x2="549.0" y2="78.2" stroke="#d5dbe4" stroke-width="0.9"/>
<line x1="488.6" y1="121.2" x2="581.9" y2="76.3" stroke="#d5dbe4" stroke-width="0.9"/>
<line x1="488.6" y1="121.2" x2="568.6" y2="137.2" stroke="#d5dbe4" stroke-width="0.9"/>
<line x1="488.6" y1="121.2" x2="532.7" y2="142.3" stroke="#d5dbe4" stroke-width="0.9"/>
<line x1="488.6" y1="121.2" x2="580.6" y2="108.6" stroke="#d5dbe4" stroke-width="0.9"/>
<line x1="346.2" y1="115.8" x2="362.2" y2="138.0" stroke="#d5dbe4" stroke-width="0.9"/>
<line x1="346.2" y1="115.8" x2="258.2" y2="154.0" stroke="#d5dbe4" stroke-width="0.9"/>
<line x1="346.2" y1="115.8" x2="371.5" y2="63.7" stroke="#d5dbe4" stroke-width="0.9"/>
<line x1="346.2" y1="115.8" x2="314.8" y2="54.2" stroke="#d5dbe4" stroke-width="0.9"/>
<line x1="362.2" y1="138.0" x2="258.2" y2="154.0" stroke="#d5dbe4" stroke-width="0.9"/>
<line x1="362.2" y1="138.0" x2="371.5" y2="63.7" stroke="#d5dbe4" stroke-width="0.9"/>
<line x1="362.2" y1="138.0" x2="314.8" y2="54.2" stroke="#d5dbe4" stroke-width="0.9"/>
<line x1="184.8" y1="244.4" x2="157.4" y2="219.2" stroke="#d5dbe4" stroke-width="0.9"/>
<line x1="184.8" y1="244.4" x2="160.9" y2="181.3" stroke="#d5dbe4" stroke-width="0.9"/>
<line x1="184.8" y1="244.4" x2="226.1" y2="256.0" stroke="#d5dbe4" stroke-width="0.9"/>
<line x1="184.8" y1="244.4" x2="176.2" y2="280.4" stroke="#d5dbe4" stroke-width="0.9"/>
<line x1="184.8" y1="244.4" x2="246.7" y2="231.6" stroke="#d5dbe4" stroke-width="0.9"/>
<line x1="184.8" y1="244.4" x2="190.8" y2="200.7" stroke="#d5dbe4" stroke-width="0.9"/>
<line x1="184.8" y1="244.4" x2="141.7" y2="261.1" stroke="#d5dbe4" stroke-width="0.9"/>
<line x1="184.8" y1="244.4" x2="124.4" y2="229.5" stroke="#d5dbe4" stroke-width="0.9"/>
<line x1="157.4" y1="219.2" x2="160.9" y2="181.3" stroke="#d5dbe4" stroke-width="0.9"/>
<line x1="157.4" y1="219.2" x2="226.1" y2="256.0" stroke="#d5dbe4" stroke-width="0.9"/>
<line x1="157.4" y1="219.2" x2="176.2" y2="280.4" stroke="#d5dbe4" stroke-width="0.9"/>
<line x1="157.4" y1="219.2" x2="246.7" y2="231.6" stroke="#d5dbe4" stroke-width="0.9"/>
<line x1="157.4" y1="219.2" x2="190.8" y2="200.7" stroke="#d5dbe4" stroke-width="0.9"/>
<line x1="157.4" y1="219.2" x2="141.7" y2="261.1" stroke="#d5dbe4" stroke-width="0.9"/>
<line x1="157.4" y1="219.2" x2="124.4" y2="229.5" stroke="#d5dbe4" stroke-width="0.9"/>
<line x1="160.9" y1="181.3" x2="226.1" y2="256.0" stroke="#d5dbe4" stroke-width="0.9"/>
<line x1="160.9" y1="181.3" x2="176.2" y2="280.4" stroke="#d5dbe4" stroke-width="0.9"/>
<line x1="160.9" y1="181.3" x2="246.7" y2="231.6" stroke="#d5dbe4" stroke-width="0.9"/>
<line x1="160.9" y1="181.3" x2="190.8" y2="200.7" stroke="#d5dbe4" stroke-width="0.9"/>
<line x1="160.9" y1="181.3" x2="141.7" y2="261.1" stroke="#d5dbe4" stroke-width="0.9"/>
<line x1="160.9" y1="181.3" x2="124.4" y2="229.5" stroke="#d5dbe4" stroke-width="0.9"/>
<line x1="603.3" y1="257.8" x2="522.5" y2="254.1" stroke="#d5dbe4" stroke-width="0.9"/>
<line x1="603.3" y1="257.8" x2="619.5" y2="220.8" stroke="#d5dbe4" stroke-width="0.9"/>
<line x1="603.3" y1="257.8" x2="680.8" y2="249.9" stroke="#d5dbe4" stroke-width="0.9"/>
<line x1="603.3" y1="257.8" x2="491.5" y2="228.2" stroke="#d5dbe4" stroke-width="0.9"/>
<line x1="226.1" y1="256.0" x2="522.5" y2="254.1" stroke="#d5dbe4" stroke-width="0.9"/>
<line x1="226.1" y1="256.0" x2="117.8" y2="187.0" stroke="#d5dbe4" stroke-width="0.9"/>
<line x1="226.1" y1="256.0" x2="176.2" y2="280.4" stroke="#d5dbe4" stroke-width="0.9"/>
<line x1="226.1" y1="256.0" x2="246.7" y2="231.6" stroke="#d5dbe4" stroke-width="0.9"/>
<line x1="226.1" y1="256.0" x2="190.8" y2="200.7" stroke="#d5dbe4" stroke-width="0.9"/>
<line x1="226.1" y1="256.0" x2="141.7" y2="261.1" stroke="#d5dbe4" stroke-width="0.9"/>
<line x1="226.1" y1="256.0" x2="124.4" y2="229.5" stroke="#d5dbe4" stroke-width="0.9"/>
<line x1="964.4" y1="290.2" x2="1040.8" y2="263.8" stroke="#d5dbe4" stroke-width="0.9"/>
<line x1="964.4" y1="290.2" x2="1013.5" y2="305.4" stroke="#d5dbe4" stroke-width="0.9"/>
<line x1="964.4" y1="290.2" x2="1009.7" y2="222.5" stroke="#d5dbe4" stroke-width="0.9"/>
<line x1="964.4" y1="290.2" x2="963.4" y2="238.5" stroke="#d5dbe4" stroke-width="0.9"/>
<line x1="522.5" y1="254.1" x2="619.5" y2="220.8" stroke="#d5dbe4" stroke-width="0.9"/>
<line x1="619.5" y1="220.8" x2="680.8" y2="249.9" stroke="#d5dbe4" stroke-width="0.9"/>
<line x1="619.5" y1="220.8" x2="491.5" y2="228.2" stroke="#d5dbe4" stroke-width="0.9"/>
<line x1="541.3" y1="112.1" x2="555.7" y2="166.4" stroke="#d5dbe4" stroke-width="0.9"/>
<line x1="541.3" y1="112.1" x2="628.3" y2="137.3" stroke="#d5dbe4" stroke-width="0.9"/>
<line x1="541.3" y1="112.1" x2="597.1" y2="162.2" stroke="#d5dbe4" stroke-width="0.9"/>
<line x1="541.3" y1="112.1" x2="510.7" y2="86.1" stroke="#d5dbe4" stroke-width="0.9"/>
<line x1="541.3" y1="112.1" x2="549.0" y2="78.2" stroke="#d5dbe4" stroke-width="0.9"/>
<line x1="541.3" y1="112.1" x2="581.9" y2="76.3" stroke="#d5dbe4" stroke-width="0.9"/>
<line x1="541.3" y1="112.1" x2="568.6" y2="137.2" stroke="#d5dbe4" stroke-width="0.9"/>
<line x1="541.3" y1="112.1" x2="532.7" y2="142.3" stroke="#d5dbe4" stroke-width="0.9"/>
<line x1="541.3" y1="112.1" x2="580.6" y2="108.6" stroke="#d5dbe4" stroke-width="0.9"/>
<line x1="698.8" y1="207.7" x2="736.2" y2="184.6" stroke="#d5dbe4" stroke-width="0.9"/>
<line x1="698.8" y1="207.7" x2="684.9" y2="153.7" stroke="#d5dbe4" stroke-width="0.9"/>
<line x1="845.0" y1="276.1" x2="795.9" y2="295.4" stroke="#d5dbe4" stroke-width="0.9"/>
<line x1="1078.5" y1="89.4" x2="1026.9" y2="111.1" stroke="#d5dbe4" stroke-width="0.9"/>
<line x1="701.1" y1="67.9" x2="687.1" y2="106.2" stroke="#d5dbe4" stroke-width="0.9"/>
<line x1="701.1" y1="67.9" x2="741.4" y2="83.5" stroke="#d5dbe4" stroke-width="0.9"/>
<line x1="701.1" y1="67.9" x2="684.9" y2="153.7" stroke="#d5dbe4" stroke-width="0.9"/>
<line x1="795.9" y1="295.4" x2="789.4" y2="241.4" stroke="#d5dbe4" stroke-width="0.9"/>
<line x1="795.9" y1="295.4" x2="727.6" y2="279.3" stroke="#d5dbe4" stroke-width="0.9"/>
<line x1="970.8" y1="159.0" x2="932.6" y2="97.2" stroke="#d5dbe4" stroke-width="0.9"/>
<line x1="970.8" y1="159.0" x2="874.5" y2="136.0" stroke="#d5dbe4" stroke-width="0.9"/>
<line x1="970.8" y1="159.0" x2="971.5" y2="115.6" stroke="#d5dbe4" stroke-width="0.9"/>
<line x1="555.7" y1="166.4" x2="628.3" y2="137.3" stroke="#d5dbe4" stroke-width="0.9"/>
<line x1="555.7" y1="166.4" x2="597.1" y2="162.2" stroke="#d5dbe4" stroke-width="0.9"/>
<line x1="555.7" y1="166.4" x2="510.7" y2="86.1" stroke="#d5dbe4" stroke-width="0.9"/>
<line x1="555.7" y1="166.4" x2="549.0" y2="78.2" stroke="#d5dbe4" stroke-width="0.9"/>
<line x1="555.7" y1="166.4" x2="581.9" y2="76.3" stroke="#d5dbe4" stroke-width="0.9"/>
<line x1="555.7" y1="166.4" x2="568.6" y2="137.2" stroke="#d5dbe4" stroke-width="0.9"/>
<line x1="555.7" y1="166.4" x2="532.7" y2="142.3" stroke="#d5dbe4" stroke-width="0.9"/>
<line x1="555.7" y1="166.4" x2="580.6" y2="108.6" stroke="#d5dbe4" stroke-width="0.9"/>
<line x1="1068.0" y1="152.7" x2="1019.4" y2="168.0" stroke="#d5dbe4" stroke-width="0.9"/>
<line x1="789.4" y1="241.4" x2="727.6" y2="279.3" stroke="#d5dbe4" stroke-width="0.9"/>
<line x1="736.2" y1="184.6" x2="760.0" y2="119.4" stroke="#d5dbe4" stroke-width="0.9"/>
<line x1="736.2" y1="184.6" x2="687.1" y2="106.2" stroke="#d5dbe4" stroke-width="0.9"/>
<line x1="736.2" y1="184.6" x2="684.9" y2="153.7" stroke="#d5dbe4" stroke-width="0.9"/>
<line x1="440.4" y1="198.9" x2="415.2" y2="231.3" stroke="#d5dbe4" stroke-width="0.9"/>
<line x1="440.4" y1="198.9" x2="414.4" y2="274.9" stroke="#d5dbe4" stroke-width="0.9"/>
<line x1="440.4" y1="198.9" x2="491.5" y2="228.2" stroke="#d5dbe4" stroke-width="0.9"/>
<line x1="371.5" y1="63.7" x2="314.8" y2="54.2" stroke="#d5dbe4" stroke-width="0.9"/>
<line x1="1040.8" y1="263.8" x2="1094.7" y2="261.9" stroke="#d5dbe4" stroke-width="0.9"/>
<line x1="1040.8" y1="263.8" x2="1013.5" y2="305.4" stroke="#d5dbe4" stroke-width="0.9"/>
<line x1="1040.8" y1="263.8" x2="1009.7" y2="222.5" stroke="#d5dbe4" stroke-width="0.9"/>
<line x1="1040.8" y1="263.8" x2="963.4" y2="238.5" stroke="#d5dbe4" stroke-width="0.9"/>
<line x1="1040.8" y1="263.8" x2="1063.8" y2="211.2" stroke="#d5dbe4" stroke-width="0.9"/>
<line x1="1094.7" y1="261.9" x2="1063.8" y2="211.2" stroke="#d5dbe4" stroke-width="0.9"/>
<line x1="628.3" y1="137.3" x2="597.1" y2="162.2" stroke="#d5dbe4" stroke-width="0.9"/>
<line x1="628.3" y1="137.3" x2="874.5" y2="136.0" stroke="#d5dbe4" stroke-width="0.9"/>
<line x1="628.3" y1="137.3" x2="549.0" y2="78.2" stroke="#d5dbe4" stroke-width="0.9"/>
<line x1="628.3" y1="137.3" x2="581.9" y2="76.3" stroke="#d5dbe4" stroke-width="0.9"/>
<line x1="628.3" y1="137.3" x2="568.6" y2="137.2" stroke="#d5dbe4" stroke-width="0.9"/>
<line x1="628.3" y1="137.3" x2="532.7" y2="142.3" stroke="#d5dbe4" stroke-width="0.9"/>
<line x1="628.3" y1="137.3" x2="580.6" y2="108.6" stroke="#d5dbe4" stroke-width="0.9"/>
<line x1="760.0" y1="119.4" x2="687.1" y2="106.2" stroke="#d5dbe4" stroke-width="0.9"/>
<line x1="760.0" y1="119.4" x2="684.9" y2="153.7" stroke="#d5dbe4" stroke-width="0.9"/>
<line x1="597.1" y1="162.2" x2="549.0" y2="78.2" stroke="#d5dbe4" stroke-width="0.9"/>
<line x1="597.1" y1="162.2" x2="581.9" y2="76.3" stroke="#d5dbe4" stroke-width="0.9"/>
<line x1="597.1" y1="162.2" x2="568.6" y2="137.2" stroke="#d5dbe4" stroke-width="0.9"/>
<line x1="597.1" y1="162.2" x2="532.7" y2="142.3" stroke="#d5dbe4" stroke-width="0.9"/>
<line x1="597.1" y1="162.2" x2="580.6" y2="108.6" stroke="#d5dbe4" stroke-width="0.9"/>
<line x1="1013.5" y1="305.4" x2="1009.7" y2="222.5" stroke="#d5dbe4" stroke-width="0.9"/>
<line x1="1013.5" y1="305.4" x2="963.4" y2="238.5" stroke="#d5dbe4" stroke-width="0.9"/>
<line x1="932.6" y1="97.2" x2="874.5" y2="136.0" stroke="#d5dbe4" stroke-width="0.9"/>
<line x1="932.6" y1="97.2" x2="971.5" y2="115.6" stroke="#d5dbe4" stroke-width="0.9"/>
<line x1="510.7" y1="86.1" x2="581.9" y2="76.3" stroke="#d5dbe4" stroke-width="0.9"/>
<line x1="510.7" y1="86.1" x2="568.6" y2="137.2" stroke="#d5dbe4" stroke-width="0.9"/>
<line x1="510.7" y1="86.1" x2="532.7" y2="142.3" stroke="#d5dbe4" stroke-width="0.9"/>
<line x1="510.7" y1="86.1" x2="580.6" y2="108.6" stroke="#d5dbe4" stroke-width="0.9"/>
<line x1="874.5" y1="136.0" x2="971.5" y2="115.6" stroke="#d5dbe4" stroke-width="0.9"/>
<line x1="549.0" y1="78.2" x2="581.9" y2="76.3" stroke="#d5dbe4" stroke-width="0.9"/>
<line x1="549.0" y1="78.2" x2="568.6" y2="137.2" stroke="#d5dbe4" stroke-width="0.9"/>
<line x1="549.0" y1="78.2" x2="532.7" y2="142.3" stroke="#d5dbe4" stroke-width="0.9"/>
<line x1="549.0" y1="78.2" x2="580.6" y2="108.6" stroke="#d5dbe4" stroke-width="0.9"/>
<line x1="1009.7" y1="222.5" x2="963.4" y2="238.5" stroke="#d5dbe4" stroke-width="0.9"/>
<line x1="838.7" y1="226.7" x2="870.7" y2="186.1" stroke="#d5dbe4" stroke-width="0.9"/>
<line x1="581.9" y1="76.3" x2="568.6" y2="137.2" stroke="#d5dbe4" stroke-width="0.9"/>
<line x1="581.9" y1="76.3" x2="532.7" y2="142.3" stroke="#d5dbe4" stroke-width="0.9"/>
<line x1="581.9" y1="76.3" x2="580.6" y2="108.6" stroke="#d5dbe4" stroke-width="0.9"/>
<line x1="727.6" y1="279.3" x2="556.2" y2="282.7" stroke="#d5dbe4" stroke-width="0.9"/>
<line x1="568.6" y1="137.2" x2="532.7" y2="142.3" stroke="#d5dbe4" stroke-width="0.9"/>
<line x1="568.6" y1="137.2" x2="580.6" y2="108.6" stroke="#d5dbe4" stroke-width="0.9"/>
<line x1="687.1" y1="106.2" x2="741.4" y2="83.5" stroke="#d5dbe4" stroke-width="0.9"/>
<line x1="687.1" y1="106.2" x2="684.9" y2="153.7" stroke="#d5dbe4" stroke-width="0.9"/>
<line x1="741.4" y1="83.5" x2="684.9" y2="153.7" stroke="#d5dbe4" stroke-width="0.9"/>
<line x1="1019.4" y1="168.0" x2="1026.9" y2="111.1" stroke="#d5dbe4" stroke-width="0.9"/>
<line x1="532.7" y1="142.3" x2="580.6" y2="108.6" stroke="#d5dbe4" stroke-width="0.9"/>
<line x1="415.2" y1="231.3" x2="414.4" y2="274.9" stroke="#d5dbe4" stroke-width="0.9"/>
<line x1="415.2" y1="231.3" x2="491.5" y2="228.2" stroke="#d5dbe4" stroke-width="0.9"/>
<line x1="414.4" y1="274.9" x2="491.5" y2="228.2" stroke="#d5dbe4" stroke-width="0.9"/>
<line x1="117.8" y1="187.0" x2="190.8" y2="200.7" stroke="#d5dbe4" stroke-width="0.9"/>
<line x1="117.8" y1="187.0" x2="141.7" y2="261.1" stroke="#d5dbe4" stroke-width="0.9"/>
<line x1="176.2" y1="280.4" x2="246.7" y2="231.6" stroke="#d5dbe4" stroke-width="0.9"/>
<line x1="176.2" y1="280.4" x2="190.8" y2="200.7" stroke="#d5dbe4" stroke-width="0.9"/>
<line x1="176.2" y1="280.4" x2="141.7" y2="261.1" stroke="#d5dbe4" stroke-width="0.9"/>
<line x1="176.2" y1="280.4" x2="124.4" y2="229.5" stroke="#d5dbe4" stroke-width="0.9"/>
<line x1="246.7" y1="231.6" x2="190.8" y2="200.7" stroke="#d5dbe4" stroke-width="0.9"/>
<line x1="246.7" y1="231.6" x2="141.7" y2="261.1" stroke="#d5dbe4" stroke-width="0.9"/>
<line x1="246.7" y1="231.6" x2="124.4" y2="229.5" stroke="#d5dbe4" stroke-width="0.9"/>
<line x1="190.8" y1="200.7" x2="141.7" y2="261.1" stroke="#d5dbe4" stroke-width="0.9"/>
<line x1="190.8" y1="200.7" x2="124.4" y2="229.5" stroke="#d5dbe4" stroke-width="0.9"/>
<line x1="141.7" y1="261.1" x2="124.4" y2="229.5" stroke="#d5dbe4" stroke-width="0.9"/>
</g>
<circle cx="830.1" cy="123.5" r="3.0" fill="#00a3a3" fill-opacity="0.72"/>
<circle cx="620.7" cy="103.7" r="9.3" fill="#e08d1a" fill-opacity="0.95"/>
<circle cx="926.4" cy="139.9" r="3.0" fill="#6e7b8b" fill-opacity="0.72"/>
<circle cx="710.1" cy="131.3" r="5.4" fill="#1b7fd4" fill-opacity="0.72"/>
<circle cx="998.1" cy="263.7" r="3.0" fill="#6e7b8b" fill-opacity="0.72"/>
<circle cx="461.5" cy="270.0" r="5.4" fill="#d1495b" fill-opacity="0.95"/>
<circle cx="519.1" cy="312.0" r="5.4" fill="#e08d1a" fill-opacity="0.72"/>
<circle cx="935.1" cy="181.9" r="5.4" fill="#6e7b8b" fill-opacity="0.72"/>
<circle cx="501.0" cy="168.0" r="6.4" fill="#e08d1a" fill-opacity="0.72"/>
<circle cx="645.8" cy="279.5" r="3.0" fill="#1b7fd4" fill-opacity="0.72"/>
<circle cx="315.7" cy="110.8" r="3.0" fill="#0f9d58" fill-opacity="0.72"/>
<circle cx="1034.9" cy="51.2" r="3.0" fill="#6e7b8b" fill-opacity="0.72"/>
<circle cx="817.7" cy="178.1" r="3.0" fill="#00a3a3" fill-opacity="0.95"/>
<circle cx="744.2" cy="148.0" r="5.4" fill="#1b7fd4" fill-opacity="0.72"/>
<circle cx="290.5" cy="200.8" r="3.0" fill="#0f9d58" fill-opacity="0.72"/>
<circle cx="325.0" cy="144.9" r="3.0" fill="#0f9d58" fill-opacity="0.72"/>
<circle cx="317.1" cy="209.9" r="3.0" fill="#0f9d58" fill-opacity="0.72"/>
<circle cx="263.2" cy="125.8" r="3.0" fill="#0f9d58" fill-opacity="0.72"/>
<circle cx="290.4" cy="165.0" r="3.0" fill="#0f9d58" fill-opacity="0.72"/>
<circle cx="317.6" cy="175.7" r="3.0" fill="#0f9d58" fill-opacity="0.72"/>
<circle cx="294.5" cy="136.6" r="3.0" fill="#0f9d58" fill-opacity="0.72"/>
<circle cx="286.5" cy="105.7" r="3.0" fill="#0f9d58" fill-opacity="0.72"/>
<circle cx="266.4" cy="183.1" r="3.0" fill="#0f9d58" fill-opacity="0.72"/>
<circle cx="350.9" cy="166.9" r="3.0" fill="#0f9d58" fill-opacity="0.72"/>
<circle cx="343.3" cy="194.8" r="3.0" fill="#0f9d58" fill-opacity="0.72"/>
<circle cx="873.2" cy="58.8" r="3.0" fill="#00a3a3" fill-opacity="0.72"/>
<circle cx="564.2" cy="224.6" r="3.0" fill="#6e7b8b" fill-opacity="0.72"/>
<circle cx="488.6" cy="121.2" r="7.2" fill="#e08d1a" fill-opacity="0.95"/>
<circle cx="980.3" cy="51.9" r="5.4" fill="#6e7b8b" fill-opacity="0.72"/>
<circle cx="346.2" cy="115.8" r="5.4" fill="#0f9d58" fill-opacity="0.95"/>
<circle cx="362.2" cy="138.0" r="6.4" fill="#0f9d58" fill-opacity="0.95"/>
<circle cx="184.8" cy="244.4" r="6.4" fill="#7c5cff" fill-opacity="0.95"/>
<circle cx="157.4" cy="219.2" r="3.0" fill="#7c5cff" fill-opacity="0.95"/>
<circle cx="160.9" cy="181.3" r="5.4" fill="#7c5cff" fill-opacity="0.72"/>
<circle cx="603.3" cy="257.8" r="5.4" fill="#1b7fd4" fill-opacity="0.72"/>
<circle cx="226.1" cy="256.0" r="5.4" fill="#7c5cff" fill-opacity="0.72"/>
<circle cx="258.2" cy="154.0" r="3.0" fill="#0f9d58" fill-opacity="0.72"/>
<circle cx="964.4" cy="290.2" r="5.4" fill="#6e7b8b" fill-opacity="0.72"/>
<circle cx="522.5" cy="254.1" r="3.0" fill="#1b7fd4" fill-opacity="0.72"/>
<circle cx="619.5" cy="220.8" r="3.0" fill="#1b7fd4" fill-opacity="0.72"/>
<circle cx="889.5" cy="239.7" r="5.4" fill="#00a3a3" fill-opacity="0.72"/>
<circle cx="541.3" cy="112.1" r="5.4" fill="#e08d1a" fill-opacity="0.72"/>
<circle cx="878.3" cy="309.2" r="5.4" fill="#00a3a3" fill-opacity="0.72"/>
<circle cx="1117.1" cy="200.2" r="5.4" fill="#6e7b8b" fill-opacity="0.72"/>
<circle cx="698.8" cy="207.7" r="5.4" fill="#1b7fd4" fill-opacity="0.72"/>
<circle cx="845.0" cy="276.1" r="5.4" fill="#00a3a3" fill-opacity="0.72"/>
<circle cx="1078.5" cy="89.4" r="5.4" fill="#6e7b8b" fill-opacity="0.72"/>
<circle cx="701.1" cy="67.9" r="5.4" fill="#1b7fd4" fill-opacity="0.72"/>
<circle cx="795.9" cy="295.4" r="5.4" fill="#00a3a3" fill-opacity="0.72"/>
<circle cx="970.8" cy="159.0" r="5.4" fill="#6e7b8b" fill-opacity="0.72"/>
<circle cx="555.7" cy="166.4" r="5.4" fill="#e08d1a" fill-opacity="0.72"/>
<circle cx="1068.0" cy="152.7" r="5.4" fill="#6e7b8b" fill-opacity="0.72"/>
<circle cx="789.4" cy="241.4" r="5.4" fill="#00a3a3" fill-opacity="0.72"/>
<circle cx="736.2" cy="184.6" r="5.4" fill="#1b7fd4" fill-opacity="0.72"/>
<circle cx="440.4" cy="198.9" r="5.4" fill="#d1495b" fill-opacity="0.72"/>
<circle cx="371.5" cy="63.7" r="5.4" fill="#0f9d58" fill-opacity="0.72"/>
<circle cx="1040.8" cy="263.8" r="5.4" fill="#6e7b8b" fill-opacity="0.72"/>
<circle cx="1094.7" cy="261.9" r="5.4" fill="#6e7b8b" fill-opacity="0.72"/>
<circle cx="628.3" cy="137.3" r="5.4" fill="#e08d1a" fill-opacity="0.72"/>
<circle cx="760.0" cy="119.4" r="5.4" fill="#1b7fd4" fill-opacity="0.72"/>
<circle cx="597.1" cy="162.2" r="5.4" fill="#e08d1a" fill-opacity="0.72"/>
<circle cx="680.8" cy="249.9" r="5.4" fill="#1b7fd4" fill-opacity="0.72"/>
<circle cx="1013.5" cy="305.4" r="5.4" fill="#6e7b8b" fill-opacity="0.72"/>
<circle cx="932.6" cy="97.2" r="5.4" fill="#6e7b8b" fill-opacity="0.72"/>
<circle cx="510.7" cy="86.1" r="5.4" fill="#e08d1a" fill-opacity="0.72"/>
<circle cx="824.5" cy="67.9" r="5.4" fill="#00a3a3" fill-opacity="0.72"/>
<circle cx="874.5" cy="136.0" r="5.4" fill="#6e7b8b" fill-opacity="0.72"/>
<circle cx="549.0" cy="78.2" r="5.4" fill="#e08d1a" fill-opacity="0.72"/>
<circle cx="1009.7" cy="222.5" r="5.4" fill="#6e7b8b" fill-opacity="0.72"/>
<circle cx="838.7" cy="226.7" r="5.4" fill="#00a3a3" fill-opacity="0.72"/>
<circle cx="581.9" cy="76.3" r="5.4" fill="#e08d1a" fill-opacity="0.72"/>
<circle cx="727.6" cy="279.3" r="5.4" fill="#00a3a3" fill-opacity="0.72"/>
<circle cx="568.6" cy="137.2" r="5.4" fill="#e08d1a" fill-opacity="0.72"/>
<circle cx="687.1" cy="106.2" r="6.4" fill="#1b7fd4" fill-opacity="0.72"/>
<circle cx="971.5" cy="115.6" r="6.4" fill="#6e7b8b" fill-opacity="0.72"/>
<circle cx="741.4" cy="83.5" r="6.4" fill="#1b7fd4" fill-opacity="0.72"/>
<circle cx="684.9" cy="153.7" r="6.4" fill="#1b7fd4" fill-opacity="0.72"/>
<circle cx="1019.4" cy="168.0" r="6.4" fill="#6e7b8b" fill-opacity="0.72"/>
<circle cx="870.7" cy="186.1" r="6.4" fill="#00a3a3" fill-opacity="0.72"/>
<circle cx="532.7" cy="142.3" r="7.8" fill="#e08d1a" fill-opacity="0.72"/>
<circle cx="963.4" cy="238.5" r="7.8" fill="#6e7b8b" fill-opacity="0.72"/>
<circle cx="597.3" cy="312.0" r="8.4" fill="#e08d1a" fill-opacity="0.72"/>
<circle cx="1026.9" cy="111.1" r="3.0" fill="#6e7b8b" fill-opacity="0.72"/>
<circle cx="415.2" cy="231.3" r="3.0" fill="#d1495b" fill-opacity="0.72"/>
<circle cx="1063.8" cy="211.2" r="3.0" fill="#6e7b8b" fill-opacity="0.72"/>
<circle cx="414.4" cy="274.9" r="5.4" fill="#d1495b" fill-opacity="0.95"/>
<circle cx="1115.4" cy="136.3" r="3.0" fill="#6e7b8b" fill-opacity="0.72"/>
<circle cx="556.2" cy="282.7" r="3.0" fill="#d1495b" fill-opacity="0.72"/>
<circle cx="314.8" cy="54.2" r="3.0" fill="#0f9d58" fill-opacity="0.72"/>
<circle cx="580.6" cy="108.6" r="3.0" fill="#e08d1a" fill-opacity="0.72"/>
<circle cx="491.5" cy="228.2" r="3.0" fill="#d1495b" fill-opacity="0.72"/>
<circle cx="109.6" cy="109.3" r="3.0" fill="#7c5cff" fill-opacity="0.72"/>
<circle cx="117.8" cy="187.0" r="7.2" fill="#7c5cff" fill-opacity="0.95"/>
<circle cx="176.2" cy="280.4" r="3.0" fill="#7c5cff" fill-opacity="0.72"/>
<circle cx="246.7" cy="231.6" r="5.4" fill="#7c5cff" fill-opacity="0.72"/>
<circle cx="190.8" cy="200.7" r="3.0" fill="#7c5cff" fill-opacity="0.72"/>
<circle cx="141.7" cy="261.1" r="5.4" fill="#7c5cff" fill-opacity="0.72"/>
<circle cx="124.4" cy="229.5" r="3.0" fill="#7c5cff" fill-opacity="0.72"/>
<text x="620.7" y="86.3" font-family="ui-monospace,SFMono-Regular,Menlo,monospace" font-size="11" fill="#3a4149" text-anchor="middle" stroke="#ffffff" stroke-width="3.5" paint-order="stroke">tinyML</text>
<text x="461.5" y="256.6" font-family="ui-monospace,SFMono-Regular,Menlo,monospace" font-size="11" fill="#3a4149" text-anchor="middle" stroke="#ffffff" stroke-width="3.5" paint-order="stroke">perturbation-kernel</text>
<text x="817.7" y="167.1" font-family="ui-monospace,SFMono-Regular,Menlo,monospace" font-size="11" fill="#3a4149" text-anchor="middle" stroke="#ffffff" stroke-width="3.5" paint-order="stroke">wfdl-gallery</text>
<text x="488.6" y="106.1" font-family="ui-monospace,SFMono-Regular,Menlo,monospace" font-size="11" fill="#3a4149" text-anchor="middle" stroke="#ffffff" stroke-width="3.5" paint-order="stroke">danzig</text>
<text x="346.2" y="102.4" font-family="ui-monospace,SFMono-Regular,Menlo,monospace" font-size="11" fill="#3a4149" text-anchor="middle" stroke="#ffffff" stroke-width="3.5" paint-order="stroke">azazel</text>
<text x="362.2" y="123.6" font-family="ui-monospace,SFMono-Regular,Menlo,monospace" font-size="11" fill="#3a4149" text-anchor="middle" stroke="#ffffff" stroke-width="3.5" paint-order="stroke">zaza</text>
<text x="184.8" y="230.0" font-family="ui-monospace,SFMono-Regular,Menlo,monospace" font-size="11" fill="#3a4149" text-anchor="middle" stroke="#ffffff" stroke-width="3.5" paint-order="stroke">flow-scikit</text>
<text x="157.4" y="208.2" font-family="ui-monospace,SFMono-Regular,Menlo,monospace" font-size="11" fill="#3a4149" text-anchor="middle" stroke="#ffffff" stroke-width="3.5" paint-order="stroke">flowrat</text>
<text x="414.4" y="295.3" font-family="ui-monospace,SFMono-Regular,Menlo,monospace" font-size="11" fill="#3a4149" text-anchor="middle" stroke="#ffffff" stroke-width="3.5" paint-order="stroke">citeverify</text>
<text x="117.8" y="171.8" font-family="ui-monospace,SFMono-Regular,Menlo,monospace" font-size="11" fill="#3a4149" text-anchor="middle" stroke="#ffffff" stroke-width="3.5" paint-order="stroke">flow</text>
<circle cx="34" cy="344" r="4" fill="#7c5cff"/>
<text x="44" y="348" font-family="ui-monospace,SFMono-Regular,Menlo,monospace" font-size="10.5" fill="#3a4149" fill-opacity="0.8">flow</text>
<circle cx="81.6" cy="344" r="4" fill="#0f9d58"/>
<text x="91.6" y="348" font-family="ui-monospace,SFMono-Regular,Menlo,monospace" font-size="10.5" fill="#3a4149" fill-opacity="0.8">build systems</text>
<circle cx="186.8" cy="344" r="4" fill="#d1495b"/>
<text x="196.8" y="348" font-family="ui-monospace,SFMono-Regular,Menlo,monospace" font-size="10.5" fill="#3a4149" fill-opacity="0.8">research tooling</text>
<circle cx="311.20000000000005" cy="344" r="4" fill="#e08d1a"/>
<text x="321.20000000000005" y="348" font-family="ui-monospace,SFMono-Regular,Menlo,monospace" font-size="10.5" fill="#3a4149" fill-opacity="0.8">audio</text>
<circle cx="365.20000000000005" cy="344" r="4" fill="#1b7fd4"/>
<text x="375.20000000000005" y="348" font-family="ui-monospace,SFMono-Regular,Menlo,monospace" font-size="10.5" fill="#3a4149" fill-opacity="0.8">ML</text>
<circle cx="400.00000000000006" cy="344" r="4" fill="#00a3a3"/>
<text x="410.00000000000006" y="348" font-family="ui-monospace,SFMono-Regular,Menlo,monospace" font-size="10.5" fill="#3a4149" fill-opacity="0.8">graphics</text>
<circle cx="473.20000000000005" cy="344" r="4" fill="#6e7b8b"/>
<text x="483.20000000000005" y="348" font-family="ui-monospace,SFMono-Regular,Menlo,monospace" font-size="10.5" fill="#3a4149" fill-opacity="0.8">tools</text>
</svg>