<svg xmlns="http://www.w3.org/2000/svg" width="1280" height="360" viewBox="0 0 1280 360" role="img" aria-label="Repository constellation">
<rect width="1280" height="360" fill="#ffffff"/>
<g stroke-linecap="round">
<line x1="730.0" y1="67.6" x2="796.5" y2="107.7" stroke="#d5dbe4" stroke-width="0.9"/>
<line x1="730.0" y1="67.6" x2="806.3" y2="57.4" stroke="#d5dbe4" stroke-width="0.9"/>
<line x1="730.0" y1="67.6" x2="542.3" y2="58.0" stroke="#d5dbe4" stroke-width="0.9"/>
<line x1="796.5" y1="107.7" x2="831.1" y2="149.5" stroke="#d5dbe4" stroke-width="0.9"/>
<line x1="796.5" y1="107.7" x2="806.3" y2="57.4" stroke="#d5dbe4" stroke-width="0.9"/>
<line x1="861.6" y1="106.9" x2="871.5" y2="54.0" stroke="#d5dbe4" stroke-width="0.9"/>
<line x1="975.4" y1="192.5" x2="882.4" y2="175.0" stroke="#d5dbe4" stroke-width="0.9"/>
<line x1="975.4" y1="192.5" x2="987.0" y2="155.5" stroke="#d5dbe4" stroke-width="0.9"/>
<line x1="975.4" y1="192.5" x2="940.1" y2="209.2" stroke="#d5dbe4" stroke-width="0.9"/>
<line x1="975.4" y1="192.5" x2="925.2" y2="130.2" stroke="#d5dbe4" stroke-width="0.9"/>
<line x1="975.4" y1="192.5" x2="963.3" y2="124.6" stroke="#d5dbe4" stroke-width="0.9"/>
<line x1="975.4" y1="192.5" x2="935.3" y2="168.8" stroke="#d5dbe4" stroke-width="0.9"/>
<line x1="886.4" y1="226.5" x2="835.7" y2="203.2" stroke="#d5dbe4" stroke-width="0.9"/>
<line x1="886.4" y1="226.5" x2="856.3" y2="263.1" stroke="#d5dbe4" stroke-width="0.9"/>
<line x1="835.7" y1="203.2" x2="856.3" y2="263.1" stroke="#d5dbe4" stroke-width="0.9"/>
<line x1="1024.8" y1="102.7" x2="979.5" y2="61.3" stroke="#d5dbe4" stroke-width="0.9"/>
<line x1="1024.8" y1="102.7" x2="1085.2" y2="103.2" stroke="#d5dbe4" stroke-width="0.9"/>
<line x1="356.0" y1="120.8" x2="312.3" y2="112.0" stroke="#d5dbe4" stroke-width="0.9"/>
<line x1="356.0" y1="120.8" x2="359.8" y2="206.3" stroke="#d5dbe4" stroke-width="0.9"/>
<line x1="356.0" y1="120.8" x2="345.0" y2="182.0" stroke="#d5dbe4" stroke-width="0.9"/>
<line x1="1061.8" y1="206.2" x2="1086.2" y2="239.9" stroke="#d5dbe4" stroke-width="0.9"/>
<line x1="1061.8" y1="206.2" x2="1108.5" y2="168.7" stroke="#d5dbe4" stroke-width="0.9"/>
<line x1="1061.8" y1="206.2" x2="1053.8" y2="150.5" stroke="#d5dbe4" stroke-width="0.9"/>
<line x1="1061.8" y1="206.2" x2="1067.1" y2="275.5" stroke="#d5dbe4" stroke-width="0.9"/>
<line x1="1061.8" y1="206.2" x2="1002.3" y2="250.6" stroke="#d5dbe4" stroke-width="0.9"/>
<line x1="1061.8" y1="206.2" x2="1028.5" y2="282.8" stroke="#d5dbe4" stroke-width="0.9"/>
<line x1="1061.8" y1="206.2" x2="1025.3" y2="218.6" stroke="#d5dbe4" stroke-width="0.9"/>
<line x1="1086.2" y1="239.9" x2="1067.1" y2="275.5" stroke="#d5dbe4" stroke-width="0.9"/>
<line x1="1086.2" y1="239.9" x2="1002.3" y2="250.6" stroke="#d5dbe4" stroke-width="0.9"/>
<line x1="1086.2" y1="239.9" x2="1028.5" y2="282.8" stroke="#d5dbe4" stroke-width="0.9"/>
<line x1="1086.2" y1="239.9" x2="1025.3" y2="218.6" stroke="#d5dbe4" stroke-width="0.9"/>
<line x1="418.7" y1="128.4" x2="461.8" y2="83.0" stroke="#d5dbe4" stroke-width="0.9"/>
<line x1="418.7" y1="128.4" x2="417.0" y2="84.2" stroke="#d5dbe4" stroke-width="0.9"/>
<line x1="418.7" y1="128.4" x2="444.7" y2="159.3" stroke="#d5dbe4" stroke-width="0.9"/>
<line x1="418.7" y1="128.4" x2="491.8" y2="126.2" stroke="#d5dbe4" stroke-width="0.9"/>
<line x1="882.4" y1="175.0" x2="987.0" y2="155.5" stroke="#d5dbe4" stroke-width="0.9"/>
<line x1="882.4" y1="175.0" x2="631.2" y2="219.6" stroke="#d5dbe4" stroke-width="0.9"/>
<line x1="882.4" y1="175.0" x2="940.1" y2="209.2" stroke="#d5dbe4" stroke-width="0.9"/>
<line x1="882.4" y1="175.0" x2="925.2" y2="130.2" stroke="#d5dbe4" stroke-width="0.9"/>
<line x1="882.4" y1="175.0" x2="963.3" y2="124.6" stroke="#d5dbe4" stroke-width="0.9"/>
<line x1="882.4" y1="175.0" x2="935.3" y2="168.8" stroke="#d5dbe4" stroke-width="0.9"/>
<line x1="532.4" y1="237.0" x2="521.5" y2="276.7" stroke="#d5dbe4" stroke-width="0.9"/>
<line x1="532.4" y1="237.0" x2="631.2" y2="219.6" stroke="#d5dbe4" stroke-width="0.9"/>
<line x1="532.4" y1="237.0" x2="581.8" y2="200.7" stroke="#d5dbe4" stroke-width="0.9"/>
<line x1="532.4" y1="237.0" x2="531.1" y2="195.7" stroke="#d5dbe4" stroke-width="0.9"/>
<line x1="532.4" y1="237.0" x2="579.4" y2="237.3" stroke="#d5dbe4" stroke-width="0.9"/>
<line x1="532.4" y1="237.0" x2="564.0" y2="171.2" stroke="#d5dbe4" stroke-width="0.9"/>
<line x1="532.4" y1="237.0" x2="559.6" y2="263.8" stroke="#d5dbe4" stroke-width="0.9"/>
<line x1="532.4" y1="237.0" x2="618.4" y2="189.2" stroke="#d5dbe4" stroke-width="0.9"/>
<line x1="532.4" y1="237.0" x2="480.4" y2="259.1" stroke="#d5dbe4" stroke-width="0.9"/>
<line x1="532.4" y1="237.0" x2="490.8" y2="210.0" stroke="#d5dbe4" stroke-width="0.9"/>
<line x1="532.4" y1="237.0" x2="605.8" y2="256.6" stroke="#d5dbe4" stroke-width="0.9"/>
<line x1="532.4" y1="237.0" x2="554.7" y2="215.3" stroke="#d5dbe4" stroke-width="0.9"/>
<line x1="687.4" y1="270.2" x2="687.9" y2="192.8" stroke="#d5dbe4" stroke-width="0.9"/>
<line x1="687.4" y1="270.2" x2="723.2" y2="200.4" stroke="#d5dbe4" stroke-width="0.9"/>
<line x1="687.4" y1="270.2" x2="696.2" y2="226.1" stroke="#d5dbe4" stroke-width="0.9"/>
<line x1="687.4" y1="270.2" x2="750.3" y2="239.6" stroke="#d5dbe4" stroke-width="0.9"/>
<line x1="687.4" y1="270.2" x2="728.9" y2="276.2" stroke="#d5dbe4" stroke-width="0.9"/>
<line x1="987.0" y1="155.5" x2="940.1" y2="209.2" stroke="#d5dbe4" stroke-width="0.9"/>
<line x1="987.0" y1="155.5" x2="925.2" y2="130.2" stroke="#d5dbe4" stroke-width="0.9"/>
<line x1="987.0" y1="155.5" x2="963.3" y2="124.6" stroke="#d5dbe4" stroke-width="0.9"/>
<line x1="987.0" y1="155.5" x2="935.3" y2="168.8" stroke="#d5dbe4" stroke-width="0.9"/>
<line x1="1108.5" y1="168.7" x2="1053.8" y2="150.5" stroke="#d5dbe4" stroke-width="0.9"/>
<line x1="521.5" y1="276.7" x2="581.8" y2="200.7" stroke="#d5dbe4" stroke-width="0.9"/>
<line x1="521.5" y1="276.7" x2="531.1" y2="195.7" stroke="#d5dbe4" stroke-width="0.9"/>
<line x1="521.5" y1="276.7" x2="579.4" y2="237.3" stroke="#d5dbe4" stroke-width="0.9"/>
<line x1="521.5" y1="276.7" x2="559.6" y2="263.8" stroke="#d5dbe4" stroke-width="0.9"/>
<line x1="521.5" y1="276.7" x2="480.4" y2="259.1" stroke="#d5dbe4" stroke-width="0.9"/>
<line x1="521.5" y1="276.7" x2="490.8" y2="210.0" stroke="#d5dbe4" stroke-width="0.9"/>
<line x1="521.5" y1="276.7" x2="554.7" y2="215.3" stroke="#d5dbe4" stroke-width="0.9"/>
<line x1="631.2" y1="219.6" x2="581.8" y2="200.7" stroke="#d5dbe4" stroke-width="0.9"/>
<line x1="631.2" y1="219.6" x2="531.1" y2="195.7" stroke="#d5dbe4" stroke-width="0.9"/>
<line x1="631.2" y1="219.6" x2="579.4" y2="237.3" stroke="#d5dbe4" stroke-width="0.9"/>
<line x1="631.2" y1="219.6" x2="564.0" y2="171.2" stroke="#d5dbe4" stroke-width="0.9"/>
<line x1="631.2" y1="219.6" x2="559.6" y2="263.8" stroke="#d5dbe4" stroke-width="0.9"/>
<line x1="631.2" y1="219.6" x2="618.4" y2="189.2" stroke="#d5dbe4" stroke-width="0.9"/>
<line x1="631.2" y1="219.6" x2="490.8" y2="210.0" stroke="#d5dbe4" stroke-width="0.9"/>
<line x1="631.2" y1="219.6" x2="605.8" y2="256.6" stroke="#d5dbe4" stroke-width="0.9"/>
<line x1="631.2" y1="219.6" x2="554.7" y2="215.3" stroke="#d5dbe4" stroke-width="0.9"/>
<line x1="581.8" y1="200.7" x2="531.1" y2="195.7" stroke="#d5dbe4" stroke-width="0.9"/>
<line x1="581.8" y1="200.7" x2="579.4" y2="237.3" stroke="#d5dbe4" stroke-width="0.9"/>
<line x1="581.8" y1="200.7" x2="564.0" y2="171.2" stroke="#d5dbe4" stroke-width="0.9"/>
<line x1="581.8" y1="200.7" x2="559.6" y2="263.8" stroke="#d5dbe4" stroke-width="0.9"/>
<line x1="581.8" y1="200.7" x2="618.4" y2="189.2" stroke="#d5dbe4" stroke-width="0.9"/>
<line x1="581.8" y1="200.7" x2="490.8" y2="210.0" stroke="#d5dbe4" stroke-width="0.9"/>
<line x1="581.8" y1="200.7" x2="605.8" y2="256.6" stroke="#d5dbe4" stroke-width="0.9"/>
<line x1="581.8" y1="200.7" x2="554.7" y2="215.3" stroke="#d5dbe4" stroke-width="0.9"/>
<line x1="531.1" y1="195.7" x2="579.4" y2="237.3" stroke="#d5dbe4" stroke-width="0.9"/>
<line x1="531.1" y1="195.7" x2="564.0" y2="171.2" stroke="#d5dbe4" stroke-width="0.9"/>
<line x1="531.1" y1="195.7" x2="559.6" y2="263.8" stroke="#d5dbe4" stroke-width="0.9"/>
<line x1="531.1" y1="195.7" x2="618.4" y2="189.2" stroke="#d5dbe4" stroke-width="0.9"/>
<line x1="531.1" y1="195.7" x2="480.4" y2="259.1" stroke="#d5dbe4" stroke-width="0.9"/>
<line x1="531.1" y1="195.7" x2="490.8" y2="210.0" stroke="#d5dbe4" stroke-width="0.9"/>
<line x1="531.1" y1="195.7" x2="605.8" y2="256.6" stroke="#d5dbe4" stroke-width="0.9"/>
<line x1="531.1" y1="195.7" x2="554.7" y2="215.3" stroke="#d5dbe4" stroke-width="0.9"/>
<line x1="735.2" y1="145.2" x2="687.9" y2="192.8" stroke="#d5dbe4" stroke-width="0.9"/>
<line x1="735.2" y1="145.2" x2="723.2" y2="200.4" stroke="#d5dbe4" stroke-width="0.9"/>
<line x1="735.2" y1="145.2" x2="696.2" y2="226.1" stroke="#d5dbe4" stroke-width="0.9"/>
<line x1="735.2" y1="145.2" x2="760.8" y2="186.7" stroke="#d5dbe4" stroke-width="0.9"/>
<line x1="735.2" y1="145.2" x2="690.8" y2="147.1" stroke="#d5dbe4" stroke-width="0.9"/>
<line x1="579.4" y1="237.3" x2="564.0" y2="171.2" stroke="#d5dbe4" stroke-width="0.9"/>
<line x1="579.4" y1="237.3" x2="559.6" y2="263.8" stroke="#d5dbe4" stroke-width="0.9"/>
<line x1="579.4" y1="237.3" x2="618.4" y2="189.2" stroke="#d5dbe4" stroke-width="0.9"/>
<line x1="579.4" y1="237.3" x2="490.8" y2="210.0" stroke="#d5dbe4" stroke-width="0.9"/>
<line x1="579.4" y1="237.3" x2="605.8" y2="256.6" stroke="#d5dbe4" stroke-width="0.9"/>
<line x1="579.4" y1="237.3" x2="554.7" y2="215.3" stroke="#d5dbe4" stroke-width="0.9"/>
<line x1="687.9" y1="192.8" x2="723.2" y2="200.4" stroke="#d5dbe4" stroke-width="0.9"/>
<line x1="687.9" y1="192.8" x2="618.4" y2="189.2" stroke="#d5dbe4" stroke-width="0.9"/>
<line x1="687.9" y1="192.8" x2="696.2" y2="226.1" stroke="#d5dbe4" stroke-width="0.9"/>
<line x1="687.9" y1="192.8" x2="750.3" y2="239.6" stroke="#d5dbe4" stroke-width="0.9"/>
<line x1="687.9" y1="192.8" x2="760.8" y2="186.7" stroke="#d5dbe4" stroke-width="0.9"/>
<line x1="687.9" y1="192.8" x2="690.8" y2="147.1" stroke="#d5dbe4" stroke-width="0.9"/>
<line x1="687.9" y1="192.8" x2="728.9" y2="276.2" stroke="#d5dbe4" stroke-width="0.9"/>
<line x1="682.4" y1="98.3" x2="603.7" y2="90.6" stroke="#d5dbe4" stroke-width="0.9"/>
<line x1="682.4" y1="98.3" x2="617.8" y2="129.2" stroke="#d5dbe4" stroke-width="0.9"/>
<line x1="723.2" y1="200.4" x2="618.4" y2="189.2" stroke="#d5dbe4" stroke-width="0.9"/>
<line x1="723.2" y1="200.4" x2="696.2" y2="226.1" stroke="#d5dbe4" stroke-width="0.9"/>
<line x1="723.2" y1="200.4" x2="750.3" y2="239.6" stroke="#d5dbe4" stroke-width="0.9"/>
<line x1="723.2" y1="200.4" x2="690.8" y2="147.1" stroke="#d5dbe4" stroke-width="0.9"/>
<line x1="723.2" y1="200.4" x2="728.9" y2="276.2" stroke="#d5dbe4" stroke-width="0.9"/>
<line x1="940.1" y1="209.2" x2="925.2" y2="130.2" stroke="#d5dbe4" stroke-width="0.9"/>
<line x1="940.1" y1="209.2" x2="963.3" y2="124.6" stroke="#d5dbe4" stroke-width="0.9"/>
<line x1="940.1" y1="209.2" x2="935.3" y2="168.8" stroke="#d5dbe4" stroke-width="0.9"/>
<line x1="603.7" y1="90.6" x2="644.8" y2="69.9" stroke="#d5dbe4" stroke-width="0.9"/>
<line x1="603.7" y1="90.6" x2="617.8" y2="129.2" stroke="#d5dbe4" stroke-width="0.9"/>
<line x1="603.7" y1="90.6" x2="522.9" y2="104.5" stroke="#d5dbe4" stroke-width="0.9"/>
<line x1="603.7" y1="90.6" x2="491.8" y2="126.2" stroke="#d5dbe4" stroke-width="0.9"/>
<line x1="565.1" y1="112.9" x2="247.2" y2="104.1" stroke="#d5dbe4" stroke-width="0.9"/>
<line x1="184.6" y1="169.4" x2="151.0" y2="89.2" stroke="#d5dbe4" stroke-width="0.9"/>
<line x1="184.6" y1="169.4" x2="187.3" y2="81.4" stroke="#d5dbe4" stroke-width="0.9"/>
<line x1="184.6" y1="169.4" x2="231.0" y2="139.8" stroke="#d5dbe4" stroke-width="0.9"/>
<line x1="184.6" y1="169.4" x2="247.2" y2="104.1" stroke="#d5dbe4" stroke-width="0.9"/>
<line x1="184.6" y1="169.4" x2="164.9" y2="140.9" stroke="#d5dbe4" stroke-width="0.9"/>
<line x1="184.6" y1="169.4" x2="137.4" y2="159.8" stroke="#d5dbe4" stroke-width="0.9"/>
<line x1="184.6" y1="169.4" x2="190.5" y2="117.3" stroke="#d5dbe4" stroke-width="0.9"/>
<line x1="184.6" y1="169.4" x2="130.3" y2="119.2" stroke="#d5dbe4" stroke-width="0.9"/>
<line x1="151.0" y1="89.2" x2="187.3" y2="81.4" stroke="#d5dbe4" stroke-width="0.9"/>
<line x1="151.0" y1="89.2" x2="231.0" y2="139.8" stroke="#d5dbe4" stroke-width="0.9"/>
<line x1="151.0" y1="89.2" x2="247.2" y2="104.1" stroke="#d5dbe4" stroke-width="0.9"/>
<line x1="151.0" y1="89.2" x2="164.9" y2="140.9" stroke="#d5dbe4" stroke-width="0.9"/>
<line x1="151.0" y1="89.2" x2="137.4" y2="159.8" stroke="#d5dbe4" stroke-width="0.9"/>
<line x1="151.0" y1="89.2" x2="190.5" y2="117.3" stroke="#d5dbe4" stroke-width="0.9"/>
<line x1="151.0" y1="89.2" x2="130.3" y2="119.2" stroke="#d5dbe4" stroke-width="0.9"/>
<line x1="312.3" y1="112.0" x2="359.8" y2="206.3" stroke="#d5dbe4" stroke-width="0.9"/>
<line x1="312.3" y1="112.0" x2="345.0" y2="182.0" stroke="#d5dbe4" stroke-width="0.9"/>
<line x1="292.2" y1="210.5" x2="312.0" y2="247.6" stroke="#d5dbe4" stroke-width="0.9"/>
<line x1="292.2" y1="210.5" x2="254.9" y2="241.5" stroke="#d5dbe4" stroke-width="0.9"/>
<line x1="292.2" y1="210.5" x2="258.6" y2="210.5" stroke="#d5dbe4" stroke-width="0.9"/>
<line x1="292.2" y1="210.5" x2="275.7" y2="268.2" stroke="#d5dbe4" stroke-width="0.9"/>
<line x1="292.2" y1="210.5" x2="336.8" y2="267.2" stroke="#d5dbe4" stroke-width="0.9"/>
<line x1="292.2" y1="210.5" x2="328.5" y2="224.1" stroke="#d5dbe4" stroke-width="0.9"/>
<line x1="292.2" y1="210.5" x2="275.6" y2="184.3" stroke="#d5dbe4" stroke-width="0.9"/>
<line x1="292.2" y1="210.5" x2="353.9" y2="241.3" stroke="#d5dbe4" stroke-width="0.9"/>
<line x1="292.2" y1="210.5" x2="306.0" y2="277.6" stroke="#d5dbe4" stroke-width="0.9"/>
<line x1="292.2" y1="210.5" x2="304.6" y2="171.5" stroke="#d5dbe4" stroke-width="0.9"/>
<line x1="292.2" y1="210.5" x2="318.1" y2="197.0" stroke="#d5dbe4" stroke-width="0.9"/>
<line x1="292.2" y1="210.5" x2="284.7" y2="238.1" stroke="#d5dbe4" stroke-width="0.9"/>
<line x1="292.2" y1="210.5" x2="359.8" y2="206.3" stroke="#d5dbe4" stroke-width="0.9"/>
<line x1="292.2" y1="210.5" x2="345.0" y2="182.0" stroke="#d5dbe4" stroke-width="0.9"/>
<line x1="312.0" y1="247.6" x2="254.9" y2="241.5" stroke="#d5dbe4" stroke-width="0.9"/>
<line x1="312.0" y1="247.6" x2="258.6" y2="210.5" stroke="#d5dbe4" stroke-width="0.9"/>
<line x1="312.0" y1="247.6" x2="275.7" y2="268.2" stroke="#d5dbe4" stroke-width="0.9"/>
<line x1="312.0" y1="247.6" x2="336.8" y2="267.2" stroke="#d5dbe4" stroke-width="0.9"/>
<line x1="312.0" y1="247.6" x2="328.5" y2="224.1" stroke="#d5dbe4" stroke-width="0.9"/>
<line x1="312.0" y1="247.6" x2="275.6" y2="184.3" stroke="#d5dbe4" stroke-width="0.9"/>
<line x1="312.0" y1="247.6" x2="353.9" y2="241.3" stroke="#d5dbe4" stroke-width="0.9"/>
<line x1="312.0" y1="247.6" x2="306.0" y2="277.6" stroke="#d5dbe4" stroke-width="0.9"/>
<line x1="312.0" y1="247.6" x2="304.6" y2="171.5" stroke="#d5dbe4" stroke-width="0.9"/>
<line x1="312.0" y1="247.6" x2="318.1" y2="197.0" stroke="#d5dbe4" stroke-width="0.9"/>
<line x1="312.0" y1="247.6" x2="284.7" y2="238.1" stroke="#d5dbe4" stroke-width="0.9"/>
<line x1="312.0" y1="247.6" x2="359.8" y2="206.3" stroke="#d5dbe4" stroke-width="0.9"/>
<line x1="312.0" y1="247.6" x2="345.0" y2="182.0" stroke="#d5dbe4" stroke-width="0.9"/>
<line x1="254.9" y1="241.5" x2="258.6" y2="210.5" stroke="#d5dbe4" stroke-width="0.9"/>
<line x1="254.9" y1="241.5" x2="275.7" y2="268.2" stroke="#d5dbe4" stroke-width="0.9"/>
<line x1="254.9" y1="241.5" x2="336.8" y2="267.2" stroke="#d5dbe4" stroke-width="0.9"/>
<line x1="254.9" y1="241.5" x2="328.5" y2="224.1" stroke="#d5dbe4" stroke-width="0.9"/>
<line x1="254.9" y1="241.5" x2="275.6" y2="184.3" stroke="#d5dbe4" stroke-width="0.9"/>
<line x1="254.9" y1="241.5" x2="353.9" y2="241.3" stroke="#d5dbe4" stroke-width="0.9"/>
<line x1="254.9" y1="241.5" x2="306.0" y2="277.6" stroke="#d5dbe4" stroke-width="0.9"/>
<line x1="254.9" y1="241.5" x2="304.6" y2="171.5" stroke="#d5dbe4" stroke-width="0.9"/>
<line x1="254.9" y1="241.5" x2="318.1" y2="197.0" stroke="#d5dbe4" stroke-width="0.9"/>
<line x1="254.9" y1="241.5" x2="284.7" y2="238.1" stroke="#d5dbe4" stroke-width="0.9"/>
<line x1="254.9" y1="241.5" x2="359.8" y2="206.3" stroke="#d5dbe4" stroke-width="0.9"/>
<line x1="254.9" y1="241.5" x2="345.0" y2="182.0" stroke="#d5dbe4" stroke-width="0.9"/>
<line x1="258.6" y1="210.5" x2="275.7" y2="268.2" stroke="#d5dbe4" stroke-width="0.9"/>
<line x1="258.6" y1="210.5" x2="336.8" y2="267.2" stroke="#d5dbe4" stroke-width="0.9"/>
<line x1="258.6" y1="210.5" x2="328.5" y2="224.1" stroke="#d5dbe4" stroke-width="0.9"/>
<line x1="258.6" y1="210.5" x2="275.6" y2="184.3" stroke="#d5dbe4" stroke-width="0.9"/>
<line x1="258.6" y1="210.5" x2="353.9" y2="241.3" stroke="#d5dbe4" stroke-width="0.9"/>
<line x1="258.6" y1="210.5" x2="306.0" y2="277.6" stroke="#d5dbe4" stroke-width="0.9"/>
<line x1="258.6" y1="210.5" x2="304.6" y2="171.5" stroke="#d5dbe4" stroke-width="0.9"/>
<line x1="258.6" y1="210.5" x2="318.1" y2="197.0" stroke="#d5dbe4" stroke-width="0.9"/>
<line x1="258.6" y1="210.5" x2="284.7" y2="238.1" stroke="#d5dbe4" stroke-width="0.9"/>
<line x1="258.6" y1="210.5" x2="359.8" y2="206.3" stroke="#d5dbe4" stroke-width="0.9"/>
<line x1="258.6" y1="210.5" x2="345.0" y2="182.0" stroke="#d5dbe4" stroke-width="0.9"/>
<line x1="275.7" y1="268.2" x2="336.8" y2="267.2" stroke="#d5dbe4" stroke-width="0.9"/>
<line x1="275.7" y1="268.2" x2="328.5" y2="224.1" stroke="#d5dbe4" stroke-width="0.9"/>
<line x1="275.7" y1="268.2" x2="275.6" y2="184.3" stroke="#d5dbe4" stroke-width="0.9"/>
<line x1="275.7" y1="268.2" x2="353.9" y2="241.3" stroke="#d5dbe4" stroke-width="0.9"/>
<line x1="275.7" y1="268.2" x2="306.0" y2="277.6" stroke="#d5dbe4" stroke-width="0.9"/>
<line x1="275.7" y1="268.2" x2="304.6" y2="171.5" stroke="#d5dbe4" stroke-width="0.9"/>
<line x1="275.7" y1="268.2" x2="318.1" y2="197.0" stroke="#d5dbe4" stroke-width="0.9"/>
<line x1="275.7" y1="268.2" x2="284.7" y2="238.1" stroke="#d5dbe4" stroke-width="0.9"/>
<line x1="275.7" y1="268.2" x2="359.8" y2="206.3" stroke="#d5dbe4" stroke-width="0.9"/>
<line x1="275.7" y1="268.2" x2="345.0" y2="182.0" stroke="#d5dbe4" stroke-width="0.9"/>
<line x1="336.8" y1="267.2" x2="328.5" y2="224.1" stroke="#d5dbe4" stroke-width="0.9"/>
<line x1="336.8" y1="267.2" x2="275.6" y2="184.3" stroke="#d5dbe4" stroke-width="0.9"/>
<line x1="336.8" y1="267.2" x2="353.9" y2="241.3" stroke="#d5dbe4" stroke-width="0.9"/>
<line x1="336.8" y1="267.2" x2="306.0" y2="277.6" stroke="#d5dbe4" stroke-width="0.9"/>
<line x1="336.8" y1="267.2" x2="304.6" y2="171.5" stroke="#d5dbe4" stroke-width="0.9"/>
<line x1="336.8" y1="267.2" x2="318.1" y2="197.0" stroke="#d5dbe4" stroke-width="0.9"/>
<line x1="336.8" y1="267.2" x2="284.7" y2="238.1" stroke="#d5dbe4" stroke-width="0.9"/>
<line x1="336.8" y1="267.2" x2="359.8" y2="206.3" stroke="#d5dbe4" stroke-width="0.9"/>
<line x1="336.8" y1="267.2" x2="345.0" y2="182.0" stroke="#d5dbe4" stroke-width="0.9"/>
<line x1="328.5" y1="224.1" x2="275.6" y2="184.3" stroke="#d5dbe4" stroke-width="0.9"/>
<line x1="328.5" y1="224.1" x2="353.9" y2="241.3" stroke="#d5dbe4" stroke-width="0.9"/>
<line x1="328.5" y1="224.1" x2="306.0" y2="277.6" stroke="#d5dbe4" stroke-width="0.9"/>
<line x1="328.5" y1="224.1" x2="304.6" y2="171.5" stroke="#d5dbe4" stroke-width="0.9"/>
<line x1="328.5" y1="224.1" x2="318.1" y2="197.0" stroke="#d5dbe4" stroke-width="0.9"/>
<line x1="328.5" y1="224.1" x2="284.7" y2="238.1" stroke="#d5dbe4" stroke-width="0.9"/>
<line x1="328.5" y1="224.1" x2="359.8" y2="206.3" stroke="#d5dbe4" stroke-width="0.9"/>
<line x1="328.5" y1="224.1" x2="345.0" y2="182.0" stroke="#d5dbe4" stroke-width="0.9"/>
<line x1="275.6" y1="184.3" x2="353.9" y2="241.3" stroke="#d5dbe4" stroke-width="0.9"/>
<line x1="275.6" y1="184.3" x2="306.0" y2="277.6" stroke="#d5dbe4" stroke-width="0.9"/>
<line x1="275.6" y1="184.3" x2="304.6" y2="171.5" stroke="#d5dbe4" stroke-width="0.9"/>
<line x1="275.6" y1="184.3" x2="318.1" y2="197.0" stroke="#d5dbe4" stroke-width="0.9"/>
<line x1="275.6" y1="184.3" x2="284.7" y2="238.1" stroke="#d5dbe4" stroke-width="0.9"/>
<line x1="275.6" y1="184.3" x2="359.8" y2="206.3" stroke="#d5dbe4" stroke-width="0.9"/>
<line x1="275.6" y1="184.3" x2="345.0" y2="182.0" stroke="#d5dbe4" stroke-width="0.9"/>
<line x1="353.9" y1="241.3" x2="306.0" y2="277.6" stroke="#d5dbe4" stroke-width="0.9"/>
<line x1="353.9" y1="241.3" x2="304.6" y2="171.5" stroke="#d5dbe4" stroke-width="0.9"/>
<line x1="353.9" y1="241.3" x2="318.1" y2="197.0" stroke="#d5dbe4" stroke-width="0.9"/>
<line x1="353.9" y1="241.3" x2="284.7" y2="238.1" stroke="#d5dbe4" stroke-width="0.9"/>
<line x1="353.9" y1="241.3" x2="359.8" y2="206.3" stroke="#d5dbe4" stroke-width="0.9"/>
<line x1="353.9" y1="241.3" x2="345.0" y2="182.0" stroke="#d5dbe4" stroke-width="0.9"/>
<line x1="306.0" y1="277.6" x2="304.6" y2="171.5" stroke="#d5dbe4" stroke-width="0.9"/>
<line x1="306.0" y1="277.6" x2="318.1" y2="197.0" stroke="#d5dbe4" stroke-width="0.9"/>
<line x1="306.0" y1="277.6" x2="284.7" y2="238.1" stroke="#d5dbe4" stroke-width="0.9"/>
<line x1="306.0" y1="277.6" x2="359.8" y2="206.3" stroke="#d5dbe4" stroke-width="0.9"/>
<line x1="306.0" y1="277.6" x2="345.0" y2="182.0" stroke="#d5dbe4" stroke-width="0.9"/>
<line x1="304.6" y1="171.5" x2="318.1" y2="197.0" stroke="#d5dbe4" stroke-width="0.9"/>
<line x1="304.6" y1="171.5" x2="284.7" y2="238.1" stroke="#d5dbe4" stroke-width="0.9"/>
<line x1="304.6" y1="171.5" x2="359.8" y2="206.3" stroke="#d5dbe4" stroke-width="0.9"/>
<line x1="304.6" y1="171.5" x2="345.0" y2="182.0" stroke="#d5dbe4" stroke-width="0.9"/>
<line x1="318.1" y1="197.0" x2="284.7" y2="238.1" stroke="#d5dbe4" stroke-width="0.9"/>
<line x1="318.1" y1="197.0" x2="359.8" y2="206.3" stroke="#d5dbe4" stroke-width="0.9"/>
<line x1="318.1" y1="197.0" x2="345.0" y2="182.0" stroke="#d5dbe4" stroke-width="0.9"/>
<line x1="284.7" y1="238.1" x2="359.8" y2="206.3" stroke="#d5dbe4" stroke-width="0.9"/>
<line x1="284.7" y1="238.1" x2="345.0" y2="182.0" stroke="#d5dbe4" stroke-width="0.9"/>
<line x1="644.8" y1="69.9" x2="617.8" y2="129.2" stroke="#d5dbe4" stroke-width="0.9"/>
<line x1="644.8" y1="69.9" x2="522.9" y2="104.5" stroke="#d5dbe4" stroke-width="0.9"/>
<line x1="564.0" y1="171.2" x2="559.6" y2="263.8" stroke="#d5dbe4" stroke-width="0.9"/>
<line x1="564.0" y1="171.2" x2="618.4" y2="189.2" stroke="#d5dbe4" stroke-width="0.9"/>
<line x1="564.0" y1="171.2" x2="490.8" y2="210.0" stroke="#d5dbe4" stroke-width="0.9"/>
<line x1="564.0" y1="171.2" x2="605.8" y2="256.6" stroke="#d5dbe4" stroke-width="0.9"/>
<line x1="564.0" y1="171.2" x2="554.7" y2="215.3" stroke="#d5dbe4" stroke-width="0.9"/>
<line x1="1067.1" y1="275.5" x2="1002.3" y2="250.6" stroke="#d5dbe4" stroke-width="0.9"/>
<line x1="1067.1" y1="275.5" x2="1028.5" y2="282.8" stroke="#d5dbe4" stroke-width="0.9"/>
<line x1="1067.1" y1="275.5" x2="1025.3" y2="218.6" stroke="#d5dbe4" stroke-width="0.9"/>
<line x1="559.6" y1="263.8" x2="618.4" y2="189.2" stroke="#d5dbe4" stroke-width="0.9"/>
<line x1="559.6" y1="263.8" x2="480.4" y2="259.1" stroke="#d5dbe4" stroke-width="0.9"/>
<line x1="559.6" y1="263.8" x2="490.8" y2="210.0" stroke="#d5dbe4" stroke-width="0.9"/>
<line x1="559.6" y1="263.8" x2="605.8" y2="256.6" stroke="#d5dbe4" stroke-width="0.9"/>
<line x1="559.6" y1="263.8" x2="554.7" y2="215.3" stroke="#d5dbe4" stroke-width="0.9"/>
<line x1="617.8" y1="129.2" x2="522.9" y2="104.5" stroke="#d5dbe4" stroke-width="0.9"/>
<line x1="617.8" y1="129.2" x2="491.8" y2="126.2" stroke="#d5dbe4" stroke-width="0.9"/>
<line x1="618.4" y1="189.2" x2="696.2" y2="226.1" stroke="#d5dbe4" stroke-width="0.9"/>
<line x1="618.4" y1="189.2" x2="605.8" y2="256.6" stroke="#d5dbe4" stroke-width="0.9"/>
<line x1="618.4" y1="189.2" x2="554.7" y2="215.3" stroke="#d5dbe4" stroke-width="0.9"/>
<line x1="925.2" y1="130.2" x2="963.3" y2="124.6" stroke="#d5dbe4" stroke-width="0.9"/>
<line x1="925.2" y1="130.2" x2="935.3" y2="168.8" stroke="#d5dbe4" stroke-width="0.9"/>
<line x1="696.2" y1="226.1" x2="750.3" y2="239.6" stroke="#d5dbe4" stroke-width="0.9"/>
<line x1="696.2" y1="226.1" x2="760.8" y2="186.7" stroke="#d5dbe4" stroke-width="0.9"/>
<line x1="696.2" y1="226.1" x2="690.8" y2="147.1" stroke="#d5dbe4" stroke-width="0.9"/>
<line x1="696.2" y1="226.1" x2="728.9" y2="276.2" stroke="#d5dbe4" stroke-width="0.9"/>
<line x1="1002.3" y1="250.6" x2="1028.5" y2="282.8" stroke="#d5dbe4" stroke-width="0.9"/>
<line x1="1002.3" y1="250.6" x2="1025.3" y2="218.6" stroke="#d5dbe4" stroke-width="0.9"/>
<line x1="461.8" y1="83.0" x2="417.0" y2="84.2" stroke="#d5dbe4" stroke-width="0.9"/>
<line x1="461.8" y1="83.0" x2="444.7" y2="159.3" stroke="#d5dbe4" stroke-width="0.9"/>
<line x1="461.8" y1="83.0" x2="542.3" y2="58.0" stroke="#d5dbe4" stroke-width="0.9"/>
<line x1="461.8" y1="83.0" x2="491.8" y2="126.2" stroke="#d5dbe4" stroke-width="0.9"/>
<line x1="480.4" y1="259.1" x2="490.8" y2="210.0" stroke="#d5dbe4" stroke-width="0.9"/>
<line x1="750.3" y1="239.6" x2="728.9" y2="276.2" stroke="#d5dbe4" stroke-width="0.9"/>
<line x1="490.8" y1="210.0" x2="359.8" y2="206.3" stroke="#d5dbe4" stroke-width="0.9"/>
<line x1="490.8" y1="210.0" x2="345.0" y2="182.0" stroke="#d5dbe4" stroke-width="0.9"/>
<line x1="490.8" y1="210.0" x2="554.7" y2="215.3" stroke="#d5dbe4" stroke-width="0.9"/>
<line x1="359.8" y1="206.3" x2="345.0" y2="182.0" stroke="#d5dbe4" stroke-width="0.9"/>
<line x1="187.3" y1="81.4" x2="231.0" y2="139.8" stroke="#d5dbe4" stroke-width="0.9"/>
<line x1="187.3" y1="81.4" x2="247.2" y2="104.1" stroke="#d5dbe4" stroke-width="0.9"/>
<line x1="187.3" y1="81.4" x2="164.9" y2="140.9" stroke="#d5dbe4" stroke-width="0.9"/>
<line x1="187.3" y1="81.4" x2="137.4" y2="159.8" stroke="#d5dbe4" stroke-width="0.9"/>
<line x1="187.3" y1="81.4" x2="190.5" y2="117.3" stroke="#d5dbe4" stroke-width="0.9"/>
<line x1="187.3" y1="81.4" x2="130.3" y2="119.2" stroke="#d5dbe4" stroke-width="0.9"/>
<line x1="231.0" y1="139.8" x2="522.9" y2="104.5" stroke="#d5dbe4" stroke-width="0.9"/>
<line x1="231.0" y1="139.8" x2="247.2" y2="104.1" stroke="#d5dbe4" stroke-width="0.9"/>
<line x1="231.0" y1="139.8" x2="164.9" y2="140.9" stroke="#d5dbe4" stroke-width="0.9"/>
<line x1="231.0" y1="139.8" x2="137.4" y2="159.8" stroke="#d5dbe4" stroke-width="0.9"/>
<line x1="231.0" y1="139.8" x2="149.0" y2="212.5" stroke="#d5dbe4" stroke-width="0.9"/>
<line x1="231.0" y1="139.8" x2="190.5" y2="117.3" stroke="#d5dbe4" stroke-width="0.9"/>
<line x1="231.0" y1="139.8" x2="130.3" y2="119.2" stroke="#d5dbe4" stroke-width="0.9"/>
<line x1="963.3" y1="124.6" x2="935.3" y2="168.8" stroke="#d5dbe4" stroke-width="0.9"/>
<line x1="605.8" y1="256.6" x2="554.7" y2="215.3" stroke="#d5dbe4" stroke-width="0.9"/>
<line x1="1028.5" y1="282.8" x2="1025.3" y2="218.6" stroke="#d5dbe4" stroke-width="0.9"/>
<line x1="417.0" y1="84.2" x2="444.7" y2="159.3" stroke="#d5dbe4" stroke-width="0.9"/>
<line x1="417.0" y1="84.2" x2="491.8" y2="126.2" stroke="#d5dbe4" stroke-width="0.9"/>
<line x1="444.7" y1="159.3" x2="491.8" y2="126.2" stroke="#d5dbe4" stroke-width="0.9"/>
<line x1="247.2" y1="104.1" x2="164.9" y2="140.9" stroke="#d5dbe4" stroke-width="0.9"/>
<line x1="247.2" y1="104.1" x2="137.4" y2="159.8" stroke="#d5dbe4" stroke-width="0.9"/>
<line x1="247.2" y1="104.1" x2="190.5" y2="117.3" stroke="#d5dbe4" stroke-width="0.9"/>
<line x1="247.2" y1="104.1" x2="130.3" y2="119.2" stroke="#d5dbe4" stroke-width="0.9"/>
<line x1="164.9" y1="140.9" x2="137.4" y2="159.8" stroke="#d5dbe4" stroke-width="0.9"/>
<line x1="164.9" y1="140.9" x2="149.0" y2="212.5" stroke="#d5dbe4" stroke-width="0.9"/>
<line x1="164.9" y1="140.9" x2="190.5" y2="117.3" stroke="#d5dbe4" stroke-width="0.9"/>
<line x1="164.9" y1="140.9" x2="130.3" y2="119.2" stroke="#d5dbe4" stroke-width="0.9"/>
<line x1="137.4" y1="159.8" x2="149.0" y2="212.5" stroke="#d5dbe4" stroke-width="0.9"/>
<line x1="137.4" y1="159.8" x2="190.5" y2="117.3" stroke="#d5dbe4" stroke-width="0.9"/>
<line x1="137.4" y1="159.8" x2="130.3" y2="119.2" stroke="#d5dbe4" stroke-width="0.9"/>
<line x1="190.5" y1="117.3" x2="130.3" y2="119.2" stroke="#d5dbe4" stroke-width="0.9"/>
</g>
<circle cx="730.0" cy="67.6" r="5.4" fill="#00a3a3" fill-opacity="0.72"/>
<circle cx="796.5" cy="107.7" r="5.4" fill="#00a3a3" fill-opacity="0.72"/>
<circle cx="861.6" cy="106.9" r="3.0" fill="#00a3a3" fill-opacity="0.72"/>
<circle cx="975.4" cy="192.5" r="3.0" fill="#6e7b8b" fill-opacity="0.72"/>
<circle cx="886.4" cy="226.5" r="6.4" fill="#00a3a3" fill-opacity="0.72"/>
<circle cx="835.7" cy="203.2" r="3.0" fill="#00a3a3" fill-opacity="0.95"/>
<circle cx="830.0" cy="312.0" r="3.0" fill="#00a3a3" fill-opacity="0.72"/>
<circle cx="1024.8" cy="102.7" r="3.0" fill="#6e7b8b" fill-opacity="0.72"/>
<circle cx="356.0" cy="120.8" r="3.0" fill="#0f9d58" fill-opacity="0.72"/>
<circle cx="1061.8" cy="206.2" r="5.4" fill="#6e7b8b" fill-opacity="0.72"/>
<circle cx="1086.2" cy="239.9" r="5.4" fill="#6e7b8b" fill-opacity="0.72"/>
<circle cx="418.7" cy="128.4" r="5.4" fill="#d1495b" fill-opacity="0.72"/>
<circle cx="882.4" cy="175.0" r="5.4" fill="#6e7b8b" fill-opacity="0.72"/>
<circle cx="532.4" cy="237.0" r="5.4" fill="#e08d1a" fill-opacity="0.72"/>
<circle cx="811.9" cy="249.6" r="5.4" fill="#00a3a3" fill-opacity="0.72"/>
<circle cx="687.4" cy="270.2" r="5.4" fill="#1b7fd4" fill-opacity="0.72"/>
<circle cx="987.0" cy="155.5" r="6.4" fill="#6e7b8b" fill-opacity="0.72"/>
<circle cx="979.5" cy="61.3" r="5.4" fill="#6e7b8b" fill-opacity="0.72"/>
<circle cx="1108.5" cy="168.7" r="5.4" fill="#6e7b8b" fill-opacity="0.72"/>
<circle cx="521.5" cy="276.7" r="5.4" fill="#e08d1a" fill-opacity="0.72"/>
<circle cx="631.2" cy="219.6" r="5.4" fill="#e08d1a" fill-opacity="0.72"/>
<circle cx="581.8" cy="200.7" r="5.4" fill="#e08d1a" fill-opacity="0.72"/>
<circle cx="531.1" cy="195.7" r="5.4" fill="#e08d1a" fill-opacity="0.72"/>
<circle cx="735.2" cy="145.2" r="5.4" fill="#1b7fd4" fill-opacity="0.72"/>
<circle cx="579.4" cy="237.3" r="7.8" fill="#e08d1a" fill-opacity="0.72"/>
<circle cx="687.9" cy="192.8" r="6.4" fill="#1b7fd4" fill-opacity="0.72"/>
<circle cx="682.4" cy="98.3" r="5.4" fill="#1b7fd4" fill-opacity="0.72"/>
<circle cx="723.2" cy="200.4" r="6.4" fill="#1b7fd4" fill-opacity="0.72"/>
<circle cx="940.1" cy="209.2" r="5.4" fill="#6e7b8b" fill-opacity="0.72"/>
<circle cx="603.7" cy="90.6" r="3.0" fill="#1b7fd4" fill-opacity="0.72"/>
<circle cx="565.1" cy="112.9" r="3.0" fill="#6e7b8b" fill-opacity="0.72"/>
<circle cx="184.6" cy="169.4" r="3.0" fill="#7c5cff" fill-opacity="0.95"/>
<circle cx="151.0" cy="89.2" r="5.4" fill="#7c5cff" fill-opacity="0.72"/>
<circle cx="1053.8" cy="150.5" r="3.0" fill="#6e7b8b" fill-opacity="0.72"/>
<circle cx="312.3" cy="112.0" r="5.4" fill="#0f9d58" fill-opacity="0.72"/>
<circle cx="292.2" cy="210.5" r="3.0" fill="#0f9d58" fill-opacity="0.72"/>
<circle cx="312.0" cy="247.6" r="3.0" fill="#0f9d58" fill-opacity="0.72"/>
<circle cx="254.9" cy="241.5" r="3.0" fill="#0f9d58" fill-opacity="0.72"/>
<circle cx="258.6" cy="210.5" r="3.0" fill="#0f9d58" fill-opacity="0.72"/>
<circle cx="275.7" cy="268.2" r="3.0" fill="#0f9d58" fill-opacity="0.72"/>
<circle cx="336.8" cy="267.2" r="3.0" fill="#0f9d58" fill-opacity="0.72"/>
<circle cx="328.5" cy="224.1" r="3.0" fill="#0f9d58" fill-opacity="0.72"/>
<circle cx="275.6" cy="184.3" r="3.0" fill="#0f9d58" fill-opacity="0.72"/>
<circle cx="353.9" cy="241.3" r="3.0" fill="#0f9d58" fill-opacity="0.72"/>
<circle cx="306.0" cy="277.6" r="3.0" fill="#0f9d58" fill-opacity="0.72"/>
<circle cx="304.6" cy="171.5" r="3.0" fill="#0f9d58" fill-opacity="0.72"/>
<circle cx="318.1" cy="197.0" r="3.0" fill="#0f9d58" fill-opacity="0.72"/>
<circle cx="284.7" cy="238.1" r="3.0" fill="#0f9d58" fill-opacity="0.72"/>
<circle cx="644.8" cy="69.9" r="3.0" fill="#1b7fd4" fill-opacity="0.72"/>
<circle cx="831.1" cy="149.5" r="5.4" fill="#00a3a3" fill-opacity="0.72"/>
<circle cx="564.0" cy="171.2" r="5.4" fill="#e08d1a" fill-opacity="0.72"/>
<circle cx="1067.1" cy="275.5" r="5.4" fill="#6e7b8b" fill-opacity="0.72"/>
<circle cx="1085.2" cy="103.2" r="6.4" fill="#6e7b8b" fill-opacity="0.72"/>
<circle cx="871.5" cy="54.0" r="5.4" fill="#00a3a3" fill-opacity="0.72"/>
<circle cx="559.6" cy="263.8" r="5.4" fill="#e08d1a" fill-opacity="0.72"/>
<circle cx="617.8" cy="129.2" r="5.4" fill="#1b7fd4" fill-opacity="0.72"/>
<circle cx="856.3" cy="263.1" r="5.4" fill="#00a3a3" fill-opacity="0.72"/>
<circle cx="891.7" cy="300.1" r="5.4" fill="#00a3a3" fill-opacity="0.72"/>
<circle cx="618.4" cy="189.2" r="9.3" fill="#e08d1a" fill-opacity="0.95"/>
<circle cx="925.2" cy="130.2" r="3.0" fill="#6e7b8b" fill-opacity="0.72"/>
<circle cx="696.2" cy="226.1" r="5.4" fill="#1b7fd4" fill-opacity="0.72"/>
<circle cx="1002.3" cy="250.6" r="3.0" fill="#6e7b8b" fill-opacity="0.72"/>
<circle cx="461.8" cy="83.0" r="5.4" fill="#d1495b" fill-opacity="0.95"/>
<circle cx="586.3" cy="42.0" r="5.4" fill="#e08d1a" fill-opacity="0.72"/>
<circle cx="480.4" cy="259.1" r="6.4" fill="#e08d1a" fill-opacity="0.72"/>
<circle cx="750.3" cy="239.6" r="5.4" fill="#1b7fd4" fill-opacity="0.72"/>
<circle cx="490.8" cy="210.0" r="7.2" fill="#e08d1a" fill-opacity="0.95"/>
<circle cx="1040.3" cy="51.9" r="5.4" fill="#6e7b8b" fill-opacity="0.72"/>
<circle cx="359.8" cy="206.3" r="5.4" fill="#0f9d58" fill-opacity="0.95"/>
<circle cx="345.0" cy="182.0" r="6.4" fill="#0f9d58" fill-opacity="0.95"/>
<circle cx="187.3" cy="81.4" r="6.4" fill="#7c5cff" fill-opacity="0.95"/>
<circle cx="231.0" cy="139.8" r="5.4" fill="#7c5cff" fill-opacity="0.72"/>
<circle cx="522.9" cy="104.5" r="3.0" fill="#1b7fd4" fill-opacity="0.72"/>
<circle cx="973.0" cy="303.7" r="5.4" fill="#6e7b8b" fill-opacity="0.72"/>
<circle cx="760.8" cy="186.7" r="5.4" fill="#1b7fd4" fill-opacity="0.72"/>
<circle cx="963.3" cy="124.6" r="5.4" fill="#6e7b8b" fill-opacity="0.72"/>
<circle cx="806.3" cy="57.4" r="5.4" fill="#00a3a3" fill-opacity="0.72"/>
<circle cx="690.8" cy="147.1" r="5.4" fill="#1b7fd4" fill-opacity="0.72"/>
<circle cx="605.8" cy="256.6" r="5.4" fill="#e08d1a" fill-opacity="0.72"/>
<circle cx="935.3" cy="168.8" r="5.4" fill="#6e7b8b" fill-opacity="0.72"/>
<circle cx="1028.5" cy="282.8" r="5.4" fill="#6e7b8b" fill-opacity="0.72"/>
<circle cx="728.9" cy="276.2" r="6.4" fill="#1b7fd4" fill-opacity="0.72"/>
<circle cx="1025.3" cy="218.6" r="7.8" fill="#6e7b8b" fill-opacity="0.72"/>
<circle cx="592.9" cy="312.0" r="8.4" fill="#e08d1a" fill-opacity="0.72"/>
<circle cx="417.0" cy="84.2" r="3.0" fill="#d1495b" fill-opacity="0.72"/>
<circle cx="444.7" cy="159.3" r="5.4" fill="#d1495b" fill-opacity="0.95"/>
<circle cx="542.3" cy="58.0" r="3.0" fill="#d1495b" fill-opacity="0.72"/>
<circle cx="554.7" cy="215.3" r="3.0" fill="#e08d1a" fill-opacity="0.72"/>
<circle cx="491.8" cy="126.2" r="3.0" fill="#d1495b" fill-opacity="0.72"/>
<circle cx="247.2" cy="104.1" r="5.4" fill="#7c5cff" fill-opacity="0.72"/>
<circle cx="164.9" cy="140.9" r="5.4" fill="#7c5cff" fill-opacity="0.72"/>
<circle cx="137.4" cy="159.8" r="3.0" fill="#7c5cff" fill-opacity="0.72"/>
<circle cx="83.3" cy="230.3" r="3.0" fill="#7c5cff" fill-opacity="0.72"/>
<circle cx="149.0" cy="212.5" r="7.2" fill="#7c5cff" fill-opacity="0.95"/>
<circle cx="190.5" cy="117.3" r="3.0" fill="#7c5cff" fill-opacity="0.72"/>
<circle cx="130.3" cy="119.2" r="3.0" fill="#7c5cff" fill-opacity="0.72"/>
<text x="835.7" y="192.2" font-family="ui-monospace,SFMono-Regular,Menlo,monospace" font-size="11" fill="#3a4149" text-anchor="middle" stroke="#ffffff" stroke-width="3.5" paint-order="stroke">wfdl-gallery</text>
<text x="184.6" y="158.4" font-family="ui-monospace,SFMono-Regular,Menlo,monospace" font-size="11" fill="#3a4149" text-anchor="middle" stroke="#ffffff" stroke-width="3.5" paint-order="stroke">flowrat</text>
<text x="618.4" y="171.9" font-family="ui-monospace,SFMono-Regular,Menlo,monospace" font-size="11" fill="#3a4149" text-anchor="middle" stroke="#ffffff" stroke-width="3.5" paint-order="stroke">tinyML</text>
<text x="461.8" y="69.6" font-family="ui-monospace,SFMono-Regular,Menlo,monospace" font-size="11" fill="#3a4149" text-anchor="middle" stroke="#ffffff" stroke-width="3.5" paint-order="stroke">perturbation-kernel</text>
<text x="490.8" y="194.8" font-family="ui-monospace,SFMono-Regular,Menlo,monospace" font-size="11" fill="#3a4149" text-anchor="middle" stroke="#ffffff" stroke-width="3.5" paint-order="stroke">danzig</text>
<text x="359.8" y="192.9" font-family="ui-monospace,SFMono-Regular,Menlo,monospace" font-size="11" fill="#3a4149" text-anchor="middle" stroke="#ffffff" stroke-width="3.5" paint-order="stroke">azazel</text>
<text x="345.0" y="167.6" font-family="ui-monospace,SFMono-Regular,Menlo,monospace" font-size="11" fill="#3a4149" text-anchor="middle" stroke="#ffffff" stroke-width="3.5" paint-order="stroke">zaza</text>
<text x="187.3" y="67.0" font-family="ui-monospace,SFMono-Regular,Menlo,monospace" font-size="11" fill="#3a4149" text-anchor="middle" stroke="#ffffff" stroke-width="3.5" paint-order="stroke">flow-scikit</text>
<text x="444.7" y="145.9" font-family="ui-monospace,SFMono-Regular,Menlo,monospace" font-size="11" fill="#3a4149" text-anchor="middle" stroke="#ffffff" stroke-width="3.5" paint-order="stroke">citeverify</text>
<text x="149.0" y="197.4" font-family="ui-monospace,SFMono-Regular,Menlo,monospace" font-size="11" fill="#3a4149" text-anchor="middle" stroke="#ffffff" stroke-width="3.5" paint-order="stroke">flow</text>
<circle cx="34" cy="344" r="4" fill="#7c5cff"/>
<text x="44" y="348" font-family="ui-monospace,SFMono-Regular,Menlo,monospace" font-size="10.5" fill="#3a4149" fill-opacity="0.8">flow</text>
<circle cx="81.6" cy="344" r="4" fill="#0f9d58"/>
<text x="91.6" y="348" font-family="ui-monospace,SFMono-Regular,Menlo,monospace" font-size="10.5" fill="#3a4149" fill-opacity="0.8">build systems</text>
<circle cx="186.8" cy="344" r="4" fill="#d1495b"/>
<text x="196.8" y="348" font-family="ui-monospace,SFMono-Regular,Menlo,monospace" font-size="10.5" fill="#3a4149" fill-opacity="0.8">research tooling</text>
<circle cx="311.20000000000005" cy="344" r="4" fill="#e08d1a"/>
<text x="321.20000000000005" y="348" font-family="ui-monospace,SFMono-Regular,Menlo,monospace" font-size="10.5" fill="#3a4149" fill-opacity="0.8">audio</text>
<circle cx="365.20000000000005" cy="344" r="4" fill="#1b7fd4"/>
<text x="375.20000000000005" y="348" font-family="ui-monospace,SFMono-Regular,Menlo,monospace" font-size="10.5" fill="#3a4149" fill-opacity="0.8">ML</text>
<circle cx="400.00000000000006" cy="344" r="4" fill="#00a3a3"/>
<text x="410.00000000000006" y="348" font-family="ui-monospace,SFMono-Regular,Menlo,monospace" font-size="10.5" fill="#3a4149" fill-opacity="0.8">graphics</text>
<circle cx="473.20000000000005" cy="344" r="4" fill="#6e7b8b"/>
<text x="483.20000000000005" y="348" font-family="ui-monospace,SFMono-Regular,Menlo,monospace" font-size="10.5" fill="#3a4149" fill-opacity="0.8">tools</text>
</svg>